<svg id="svg" version="1.1" viewBox="0 0 400 367.22891566265065" xmlns="http://www.w3.org/2000/svg" xmlns:xlink="http://www.w3.org/1999/xlink" >
    <g id="svgg">
        <path id="path2" d="M300.643 0.367 C 300.518 0.569,300.103 0.735,299.722 0.735 C 299.340 0.735,298.592 1.138,298.060 1.631 C 297.528 2.125,296.734 2.583,296.297 2.650 C 295.859 2.717,295.542 2.975,295.592 3.223 C 295.643 3.470,295.448 3.673,295.159 3.673 C 294.871 3.673,294.369 3.939,294.044 4.264 C 293.719 4.589,293.060 4.878,292.579 4.907 C 292.099 4.935,291.771 5.025,291.852 5.105 C 292.117 5.371,290.441 6.612,289.815 6.612 C 289.477 6.612,288.812 7.025,288.338 7.530 C 287.863 8.035,287.256 8.448,286.988 8.448 C 286.720 8.448,286.501 8.610,286.501 8.808 C 286.501 9.007,286.104 9.269,285.618 9.390 C 285.132 9.512,284.359 10.011,283.901 10.499 C 283.443 10.987,282.843 11.387,282.569 11.387 C 282.295 11.387,281.975 11.635,281.859 11.938 C 281.743 12.241,281.446 12.489,281.200 12.489 C 280.954 12.489,280.364 12.902,279.890 13.407 C 279.415 13.912,278.643 14.325,278.173 14.325 C 277.665 14.325,277.319 14.545,277.319 14.867 C 277.319 15.164,276.823 15.665,276.217 15.978 C 275.611 16.291,275.115 16.709,275.115 16.906 C 275.115 17.102,274.867 17.264,274.564 17.264 C 274.261 17.264,274.013 17.429,274.013 17.631 C 274.013 17.833,273.806 17.999,273.554 18.000 C 273.301 18.001,272.566 18.497,271.921 19.102 C 271.275 19.707,270.585 20.202,270.386 20.202 C 270.188 20.202,269.701 20.615,269.303 21.120 C 268.906 21.625,268.463 22.039,268.320 22.039 C 268.084 22.039,266.079 23.528,264.364 24.977 C 264.005 25.280,263.344 25.618,262.894 25.728 C 262.444 25.838,262.075 26.098,262.075 26.305 C 262.075 26.725,260.981 27.916,260.596 27.916 C 260.461 27.916,259.895 28.370,259.339 28.926 C 257.711 30.553,256.612 31.441,255.900 31.704 C 255.533 31.840,255.336 32.117,255.462 32.321 C 255.588 32.524,255.342 32.691,254.913 32.691 C 254.485 32.691,254.222 32.831,254.328 33.004 C 254.680 33.572,253.604 34.595,252.593 34.653 C 251.965 34.690,251.664 34.879,251.775 35.170 C 251.872 35.422,251.818 35.629,251.654 35.629 C 251.491 35.629,251.169 36.042,250.939 36.547 C 250.709 37.052,250.273 37.466,249.970 37.466 C 249.668 37.466,249.161 37.862,248.844 38.345 C 248.526 38.829,247.910 39.319,247.474 39.433 C 247.037 39.547,246.795 39.755,246.935 39.895 C 247.223 40.183,245.202 42.241,244.631 42.241 C 244.428 42.241,244.261 42.449,244.261 42.703 C 244.261 42.958,243.930 43.372,243.526 43.625 C 243.122 43.877,242.792 44.330,242.792 44.631 C 242.792 44.933,242.556 45.179,242.269 45.179 C 241.816 45.179,239.486 47.190,239.486 47.581 C 239.486 47.659,238.494 48.727,237.282 49.954 C 236.070 51.181,235.078 52.345,235.078 52.539 C 235.078 52.733,234.747 52.893,234.343 52.893 C 233.939 52.893,233.604 53.099,233.597 53.352 C 233.583 53.927,231.932 55.831,231.448 55.831 C 231.250 55.831,231.036 56.203,230.971 56.657 C 230.895 57.198,230.558 57.526,229.999 57.605 C 229.491 57.677,229.217 57.914,229.323 58.191 C 229.421 58.446,229.186 58.883,228.800 59.161 C 228.415 59.439,228.099 59.878,228.099 60.136 C 228.099 60.395,227.851 60.606,227.548 60.606 C 227.245 60.606,226.997 60.783,226.997 61.000 C 226.997 61.216,226.791 61.603,226.538 61.860 C 226.286 62.116,225.666 62.874,225.161 63.545 C 224.656 64.215,224.036 64.973,223.783 65.229 C 223.531 65.486,223.324 65.803,223.324 65.935 C 223.324 66.066,222.498 67.124,221.488 68.285 C 220.478 69.447,219.651 70.525,219.651 70.683 C 219.651 70.840,219.241 71.291,218.740 71.685 C 218.239 72.080,217.852 72.517,217.880 72.657 C 217.974 73.126,217.372 74.197,217.014 74.197 C 216.472 74.197,215.814 74.992,215.286 76.282 C 215.024 76.924,214.576 77.539,214.291 77.648 C 214.007 77.757,213.774 78.074,213.774 78.352 C 213.774 78.630,213.361 79.338,212.856 79.925 C 212.351 80.511,211.938 81.181,211.938 81.412 C 211.938 81.642,211.690 81.927,211.387 82.043 C 211.084 82.159,210.836 82.482,210.836 82.760 C 210.836 83.038,210.505 83.565,210.101 83.930 C 209.697 84.296,209.366 84.817,209.366 85.089 C 209.366 85.361,209.201 85.583,208.999 85.583 C 208.797 85.583,208.632 85.831,208.632 86.134 C 208.632 86.437,208.487 86.685,208.309 86.685 C 208.132 86.685,207.781 87.181,207.530 87.787 C 207.279 88.393,206.939 88.889,206.774 88.889 C 206.610 88.889,206.266 89.467,206.011 90.174 C 205.755 90.882,205.331 91.460,205.069 91.460 C 204.806 91.460,204.591 91.717,204.591 92.031 C 204.591 92.344,204.178 93.209,203.673 93.952 C 203.168 94.696,202.755 95.434,202.755 95.593 C 202.755 95.752,202.351 96.522,201.857 97.304 C 201.364 98.086,201.061 98.826,201.184 98.950 C 201.307 99.073,201.133 99.174,200.796 99.174 C 200.459 99.174,200.184 99.424,200.184 99.730 C 200.184 100.324,199.595 101.464,198.740 102.526 C 198.451 102.885,198.157 103.551,198.088 104.007 C 198.018 104.462,197.823 104.925,197.655 105.035 C 197.265 105.289,193.205 113.643,193.205 114.191 C 193.205 114.416,193.052 114.601,192.866 114.601 C 192.680 114.601,192.324 115.216,192.076 115.968 C 191.828 116.720,191.408 117.552,191.144 117.816 C 190.879 118.081,190.555 118.870,190.424 119.571 C 190.292 120.272,190.038 120.845,189.858 120.845 C 189.679 120.845,189.532 121.175,189.532 121.579 C 189.532 121.983,189.366 122.314,189.164 122.314 C 188.962 122.314,188.797 122.696,188.797 123.162 C 188.797 123.629,188.554 124.331,188.258 124.723 C 187.961 125.115,187.713 125.638,187.707 125.884 C 187.700 126.131,187.282 127.236,186.777 128.340 C 186.272 129.444,185.853 130.565,185.847 130.830 C 185.840 131.096,185.593 131.634,185.296 132.026 C 184.999 132.418,184.757 133.040,184.757 133.407 C 184.757 133.775,184.430 134.355,184.030 134.697 C 183.492 135.158,183.420 135.394,183.754 135.607 C 184.064 135.803,183.990 135.895,183.520 135.899 C 183.019 135.903,182.886 136.100,183.024 136.630 C 183.217 137.366,182.617 140.343,182.209 140.680 C 181.695 141.104,181.084 143.008,181.084 144.186 C 181.084 144.884,180.955 145.455,180.798 145.455 C 180.640 145.455,180.194 146.653,179.806 148.118 C 179.418 149.582,179.078 150.863,179.050 150.964 C 179.022 151.065,178.908 151.396,178.795 151.699 C 178.683 152.002,178.397 153.197,178.159 154.356 C 177.922 155.514,177.574 156.557,177.386 156.673 C 177.197 156.789,177.043 157.447,177.043 158.135 C 177.043 158.822,176.722 160.259,176.329 161.327 C 175.936 162.395,175.421 165.005,175.184 167.126 C 174.948 169.247,174.628 171.148,174.475 171.350 C 174.076 171.873,173.370 176.250,173.370 178.194 C 173.370 179.096,173.214 179.992,173.024 180.184 C 172.833 180.376,172.495 182.976,172.273 185.962 C 172.051 188.949,171.761 191.676,171.630 192.023 C 171.061 193.526,169.697 193.820,169.697 192.440 C 169.697 191.905,169.436 191.736,168.617 191.736 C 168.023 191.736,167.450 191.596,167.345 191.425 C 167.239 191.255,166.031 190.567,164.660 189.896 C 163.289 189.226,162.083 188.552,161.979 188.398 C 161.734 188.033,158.678 186.973,157.851 186.966 C 157.498 186.963,157.208 186.713,157.208 186.410 C 157.208 186.015,156.805 185.859,155.784 185.859 C 155.001 185.859,154.169 185.629,153.936 185.348 C 153.472 184.789,152.143 184.442,149.311 184.142 C 148.301 184.034,147.259 183.771,146.996 183.556 C 146.733 183.341,145.824 183.043,144.976 182.894 C 144.128 182.744,143.021 182.519,142.516 182.393 C 142.011 182.266,140.606 182.082,139.394 181.984 C 138.182 181.886,136.116 181.698,134.803 181.567 C 131.177 181.207,126.425 181.169,123.967 181.481 C 122.755 181.635,120.028 181.868,117.906 181.999 C 115.785 182.130,113.994 182.391,113.927 182.579 C 113.860 182.766,113.260 182.920,112.595 182.920 C 111.929 182.920,110.791 183.168,110.066 183.471 C 109.341 183.774,107.866 184.022,106.789 184.022 C 105.711 184.022,104.673 184.165,104.481 184.341 C 103.990 184.789,100.664 185.858,99.751 185.861 C 99.332 185.862,98.516 186.110,97.938 186.412 C 97.359 186.714,96.491 186.961,96.009 186.961 C 95.527 186.961,95.133 187.126,95.133 187.328 C 95.133 187.530,94.649 187.695,94.057 187.695 C 93.466 187.695,92.763 187.908,92.496 188.168 C 92.080 188.572,89.877 189.383,88.705 189.562 C 88.503 189.593,88.012 189.847,87.613 190.126 C 87.215 190.405,86.425 190.634,85.857 190.634 C 85.290 190.634,84.739 190.858,84.634 191.132 C 84.529 191.406,83.749 191.856,82.901 192.131 C 82.053 192.406,81.141 192.843,80.874 193.102 C 80.607 193.360,80.070 193.593,79.680 193.618 C 78.273 193.709,78.055 193.796,78.145 194.232 C 78.196 194.475,77.865 194.686,77.410 194.701 C 76.956 194.716,76.088 195.033,75.482 195.406 C 74.876 195.779,73.182 196.691,71.717 197.431 C 70.253 198.172,69.054 198.929,69.054 199.114 C 69.054 199.298,68.634 199.449,68.121 199.449 C 67.607 199.449,66.822 199.798,66.376 200.223 C 65.930 200.649,65.110 201.161,64.555 201.361 C 63.999 201.561,63.545 201.874,63.545 202.056 C 63.545 202.238,63.354 202.388,63.120 202.388 C 62.887 202.388,62.154 202.801,61.492 203.306 C 60.830 203.811,60.104 204.224,59.880 204.224 C 59.656 204.224,58.578 204.885,57.484 205.693 C 56.390 206.501,55.152 207.163,54.733 207.163 C 54.314 207.163,53.876 207.410,53.760 207.713 C 53.644 208.017,53.309 208.264,53.015 208.264 C 52.722 208.264,52.584 208.430,52.709 208.632 C 52.834 208.834,52.686 208.999,52.382 208.999 C 52.077 208.999,51.695 209.215,51.533 209.478 C 51.372 209.741,50.633 210.239,49.892 210.583 C 49.150 210.928,48.489 211.349,48.423 211.519 C 48.356 211.690,46.896 212.744,45.179 213.861 C 43.462 214.979,41.594 216.326,41.028 216.854 C 40.462 217.382,39.820 217.815,39.602 217.815 C 39.383 217.815,38.895 218.172,38.516 218.608 C 37.817 219.415,36.664 220.195,35.583 220.594 C 35.254 220.716,34.772 221.214,34.511 221.702 C 34.249 222.190,33.798 222.590,33.508 222.590 C 33.217 222.590,32.655 223.003,32.258 223.508 C 31.860 224.013,31.299 224.426,31.011 224.426 C 30.723 224.426,30.487 224.674,30.487 224.977 C 30.487 225.280,30.263 225.528,29.989 225.528 C 29.716 225.528,29.046 225.941,28.501 226.446 C 27.956 226.951,27.436 227.365,27.346 227.365 C 27.255 227.365,26.867 227.654,26.484 228.007 C 24.351 229.973,23.902 230.303,23.364 230.303 C 23.018 230.303,22.773 230.607,22.773 231.038 C 22.773 231.442,22.602 231.772,22.393 231.772 C 22.185 231.772,21.529 232.268,20.937 232.874 C 20.344 233.480,19.689 233.976,19.480 233.976 C 19.271 233.976,19.100 234.224,19.100 234.527 C 19.100 234.830,18.884 235.078,18.619 235.078 C 18.078 235.078,15.794 237.192,15.794 237.693 C 15.794 237.871,15.543 238.017,15.236 238.017 C 14.928 238.017,13.331 239.339,11.687 240.955 C 10.042 242.571,8.475 243.893,8.205 243.893 C 7.935 243.893,7.713 244.127,7.713 244.412 C 7.713 245.037,4.079 248.669,3.453 248.669 C 3.015 248.669,1.902 250.262,0.651 252.683 C -1.027 255.928,1.349 263.195,4.132 263.330 C 4.486 263.347,4.775 263.538,4.775 263.754 C 4.775 264.268,5.712 265.197,6.230 265.197 C 6.452 265.197,6.730 265.445,6.846 265.748 C 6.962 266.051,7.297 266.299,7.591 266.299 C 7.884 266.299,8.022 266.465,7.897 266.667 C 7.772 266.870,8.097 267.198,8.619 267.396 C 9.141 267.595,9.665 268.009,9.783 268.316 C 9.901 268.623,10.564 269.143,11.256 269.471 C 11.948 269.800,12.440 270.144,12.348 270.235 C 12.114 270.470,13.307 271.806,13.764 271.821 C 14.314 271.839,15.794 273.145,15.794 273.613 C 15.794 273.833,16.042 274.013,16.345 274.013 C 16.648 274.013,16.897 274.137,16.899 274.288 C 16.900 274.440,17.406 274.852,18.024 275.203 C 18.642 275.555,19.055 275.992,18.943 276.174 C 18.830 276.356,19.109 276.605,19.562 276.727 C 20.015 276.848,21.153 277.651,22.092 278.511 C 23.030 279.370,24.513 280.652,25.388 281.359 C 26.263 282.066,27.421 283.099,27.962 283.655 C 28.502 284.210,29.190 284.665,29.490 284.665 C 29.790 284.665,30.306 285.078,30.637 285.583 C 30.967 286.088,31.463 286.501,31.738 286.501 C 32.014 286.501,32.509 286.915,32.840 287.420 C 33.171 287.925,33.686 288.338,33.985 288.338 C 34.283 288.338,34.527 288.507,34.527 288.714 C 34.527 288.921,34.940 289.248,35.445 289.440 C 35.950 289.632,36.364 289.930,36.364 290.103 C 36.364 290.276,36.777 290.639,37.282 290.909 C 37.787 291.179,38.200 291.621,38.200 291.889 C 38.200 292.158,38.419 292.378,38.687 292.378 C 38.955 292.378,39.562 292.792,40.037 293.297 C 40.511 293.802,41.060 294.215,41.256 294.215 C 41.452 294.215,41.960 294.557,42.386 294.975 C 42.811 295.393,44.151 296.461,45.363 297.348 C 46.575 298.235,47.815 299.181,48.118 299.450 C 49.687 300.844,52.440 302.975,53.164 303.355 C 53.617 303.592,53.948 303.979,53.899 304.213 C 53.851 304.448,54.141 304.711,54.545 304.798 C 54.949 304.885,55.747 305.349,56.318 305.830 C 56.889 306.310,57.504 306.703,57.684 306.703 C 57.864 306.703,57.917 306.951,57.800 307.254 C 57.646 307.656,57.844 307.805,58.528 307.805 C 59.044 307.805,59.912 308.219,60.457 308.724 C 61.002 309.229,61.581 309.642,61.743 309.642 C 61.905 309.642,62.483 310.055,63.028 310.560 C 63.573 311.065,64.169 311.478,64.352 311.478 C 64.916 311.478,67.218 313.470,67.218 313.958 C 67.218 314.210,67.631 314.417,68.136 314.417 C 68.641 314.417,69.054 314.550,69.054 314.712 C 69.054 315.064,73.176 318.042,74.747 318.825 C 75.354 319.128,76.308 319.779,76.866 320.273 C 77.424 320.767,78.168 321.213,78.518 321.264 C 78.868 321.315,79.492 321.779,79.904 322.295 C 80.315 322.810,80.928 323.232,81.265 323.232 C 81.602 323.232,82.486 323.646,83.231 324.151 C 83.975 324.656,84.780 325.069,85.019 325.069 C 85.259 325.069,85.843 325.482,86.318 325.987 C 86.792 326.492,87.487 326.905,87.863 326.905 C 88.238 326.905,88.640 327.153,88.756 327.456 C 88.872 327.759,89.190 328.007,89.461 328.007 C 89.732 328.007,90.086 328.214,90.248 328.466 C 90.410 328.719,91.120 329.214,91.827 329.566 C 92.534 329.918,93.361 330.345,93.664 330.514 C 94.297 330.868,96.281 331.902,97.888 332.717 C 98.494 333.024,99.073 333.371,99.174 333.488 C 99.551 333.925,101.020 334.619,101.568 334.619 C 101.880 334.619,102.230 334.867,102.347 335.170 C 102.463 335.473,102.871 335.721,103.253 335.721 C 103.636 335.721,103.949 335.969,103.949 336.272 C 103.949 336.615,104.295 336.823,104.867 336.823 C 105.372 336.823,105.785 336.988,105.785 337.190 C 105.785 337.392,106.198 337.557,106.703 337.557 C 107.275 337.557,107.622 337.766,107.622 338.108 C 107.622 338.446,107.965 338.659,108.510 338.659 C 109.449 338.659,111.656 339.753,111.660 340.220 C 111.661 340.372,112.250 340.496,112.969 340.496 C 113.802 340.496,114.189 340.638,114.034 340.888 C 113.901 341.104,114.139 341.371,114.564 341.482 C 114.988 341.593,115.335 341.829,115.335 342.008 C 115.335 342.186,115.996 342.332,116.804 342.332 C 117.612 342.332,118.274 342.487,118.274 342.676 C 118.274 342.865,118.852 343.229,119.559 343.484 C 120.266 343.740,120.845 344.055,120.845 344.184 C 120.845 344.313,121.795 344.642,122.957 344.915 C 124.118 345.187,125.201 345.627,125.363 345.892 C 125.524 346.156,126.021 346.373,126.467 346.373 C 126.914 346.373,128.055 346.786,129.004 347.291 C 129.952 347.796,131.237 348.209,131.859 348.209 C 132.525 348.209,133.076 348.436,133.201 348.760 C 133.317 349.063,133.798 349.311,134.269 349.311 C 134.741 349.311,135.229 349.477,135.354 349.679 C 135.478 349.881,136.214 350.046,136.989 350.046 C 137.902 350.046,138.471 350.240,138.608 350.597 C 138.738 350.934,139.295 351.148,140.047 351.148 C 140.722 351.148,141.595 351.391,141.987 351.687 C 142.379 351.984,142.963 352.232,143.286 352.238 C 143.608 352.245,144.847 352.594,146.040 353.014 C 147.233 353.434,149.098 353.918,150.184 354.090 C 152.567 354.467,154.334 355.155,154.060 355.598 C 153.950 355.777,154.877 355.923,156.121 355.923 C 157.365 355.923,158.904 356.150,159.540 356.428 C 160.906 357.023,164.200 357.755,165.593 357.771 C 166.133 357.778,166.896 358.025,167.288 358.322 C 167.695 358.630,168.797 358.862,169.859 358.864 C 170.881 358.865,172.130 359.078,172.635 359.337 C 173.140 359.596,174.261 359.856,175.126 359.914 C 175.991 359.973,177.230 360.173,177.879 360.359 C 178.528 360.546,179.770 360.698,180.640 360.698 C 181.510 360.698,182.668 360.923,183.214 361.198 C 183.759 361.474,185.735 361.793,187.603 361.909 C 189.472 362.025,191.538 362.284,192.194 362.484 C 193.790 362.972,199.205 363.636,201.580 363.636 C 202.840 363.636,203.458 363.782,203.398 364.064 C 203.333 364.367,204.698 364.530,208.081 364.623 C 210.707 364.695,213.649 364.916,214.619 365.113 C 215.588 365.311,218.285 365.473,220.612 365.473 C 223.086 365.473,225.168 365.647,225.627 365.893 C 226.417 366.316,234.000 366.708,250.321 367.168 C 258.874 367.410,262.384 367.117,263.452 366.074 C 263.705 365.827,264.490 365.399,265.197 365.121 C 265.904 364.844,266.772 364.371,267.125 364.071 C 267.478 363.770,268.263 363.539,268.869 363.556 C 269.551 363.575,269.972 363.403,269.972 363.105 C 269.972 362.840,270.427 362.454,270.983 362.246 C 272.795 361.569,273.081 361.433,274.197 360.721 C 274.803 360.334,275.642 360.005,276.061 359.990 C 276.480 359.975,277.224 359.536,277.714 359.013 C 278.204 358.491,279.265 357.744,280.073 357.354 C 281.627 356.604,282.332 356.193,284.105 355.005 C 285.498 354.070,286.537 353.448,287.236 353.129 C 287.539 352.990,288.648 352.240,289.700 351.461 C 290.752 350.683,291.856 350.046,292.154 350.046 C 292.452 350.046,292.796 349.732,292.918 349.348 C 293.040 348.964,293.515 348.555,293.975 348.440 C 294.435 348.325,295.297 347.812,295.890 347.302 C 296.484 346.791,297.102 346.374,297.263 346.373 C 297.424 346.373,297.939 345.960,298.407 345.455 C 298.875 344.949,299.457 344.536,299.699 344.536 C 299.942 344.536,300.681 343.999,301.341 343.343 C 303.108 341.583,304.385 340.496,304.682 340.496 C 304.827 340.496,305.270 340.083,305.667 339.578 C 306.137 338.981,306.757 338.659,307.439 338.659 C 308.244 338.659,308.516 338.469,308.606 337.842 C 308.671 337.393,309.137 336.817,309.642 336.562 C 310.147 336.307,310.395 336.086,310.193 336.070 C 309.991 336.055,310.208 335.888,310.676 335.701 C 311.143 335.513,311.441 335.223,311.338 335.057 C 311.235 334.890,311.638 334.466,312.233 334.115 C 312.828 333.763,313.315 333.320,313.315 333.129 C 313.315 332.938,313.536 332.782,313.807 332.782 C 314.078 332.782,314.487 332.369,314.717 331.864 C 314.947 331.359,315.387 330.946,315.695 330.946 C 316.002 330.946,316.253 330.698,316.253 330.395 C 316.253 330.092,316.420 329.844,316.625 329.844 C 317.097 329.844,323.967 322.958,323.967 322.484 C 323.967 322.290,324.102 322.130,324.268 322.130 C 324.719 322.130,326.905 320.100,326.905 319.680 C 326.905 319.480,327.319 319.095,327.824 318.825 C 328.329 318.554,328.742 318.113,328.742 317.844 C 328.742 317.575,328.911 317.355,329.117 317.355 C 329.324 317.355,329.681 316.942,329.911 316.437 C 330.141 315.932,330.633 315.519,331.005 315.519 C 331.376 315.519,331.680 315.283,331.680 314.994 C 331.680 314.705,331.893 314.251,332.153 313.984 C 332.534 313.592,335.476 310.000,336.766 308.351 C 336.926 308.146,338.120 306.744,339.419 305.234 C 340.718 303.725,341.804 302.405,341.831 302.301 C 342.163 301.033,342.525 300.448,343.088 300.269 C 343.460 300.151,343.866 299.732,343.991 299.338 C 344.116 298.945,344.362 298.623,344.537 298.623 C 344.713 298.623,345.065 298.044,345.321 297.337 C 345.577 296.630,345.997 296.051,346.256 296.051 C 346.515 296.051,346.830 295.638,346.957 295.133 C 347.083 294.628,347.310 294.215,347.460 294.215 C 347.741 294.215,349.531 291.608,351.148 288.846 C 351.653 287.983,352.508 286.787,353.049 286.188 C 353.589 285.590,353.934 285.002,353.814 284.882 C 353.694 284.763,353.872 284.665,354.209 284.665 C 354.606 284.665,354.821 284.363,354.821 283.803 C 354.821 283.330,355.152 282.643,355.556 282.277 C 355.960 281.912,356.290 281.390,356.290 281.118 C 356.290 280.847,356.444 280.624,356.633 280.624 C 356.821 280.624,357.089 280.253,357.227 279.798 C 357.366 279.343,357.687 278.724,357.941 278.421 C 358.195 278.118,358.986 276.759,359.699 275.401 C 360.412 274.043,361.342 272.492,361.765 271.954 C 362.188 271.416,362.534 270.660,362.534 270.275 C 362.534 269.890,362.849 269.237,363.232 268.825 C 363.616 268.413,364.336 267.304,364.832 266.361 C 365.327 265.418,366.104 263.944,366.558 263.085 C 367.012 262.227,367.521 261.524,367.688 261.524 C 367.855 261.524,368.178 260.630,368.405 259.536 C 368.632 258.442,369.048 257.459,369.329 257.351 C 369.610 257.244,369.948 256.579,370.080 255.874 C 370.213 255.170,370.635 254.309,371.019 253.962 C 371.403 253.614,371.717 253.165,371.717 252.963 C 371.717 252.761,372.145 251.671,372.668 250.540 C 373.682 248.351,374.791 245.879,375.570 244.077 C 375.831 243.471,376.377 242.231,376.782 241.322 C 377.187 240.413,377.638 239.256,377.785 238.751 C 377.931 238.246,378.180 237.668,378.338 237.466 C 378.495 237.264,379.226 235.528,379.960 233.609 C 380.695 231.690,381.440 229.789,381.616 229.385 C 382.072 228.336,382.413 227.294,382.577 226.446 C 382.655 226.042,383.054 225.057,383.463 224.257 C 383.871 223.456,384.206 222.504,384.206 222.140 C 384.206 221.776,384.397 221.108,384.630 220.656 C 385.555 218.867,385.675 218.528,385.675 217.692 C 385.675 217.216,385.941 216.292,386.266 215.640 C 386.879 214.411,387.543 212.231,388.456 208.448 C 388.749 207.236,389.129 205.914,389.301 205.510 C 389.912 204.073,390.450 202.140,390.450 201.378 C 390.450 200.952,390.672 200.381,390.944 200.109 C 391.216 199.838,391.558 198.556,391.704 197.262 C 391.851 195.967,392.189 194.597,392.455 194.216 C 392.722 193.836,392.856 193.205,392.754 192.814 C 392.652 192.423,392.753 192.103,392.978 192.103 C 393.226 192.103,393.388 191.372,393.388 190.261 C 393.388 189.248,393.539 188.133,393.724 187.782 C 394.155 186.963,395.499 181.362,395.742 179.377 C 396.027 177.034,396.712 172.963,397.060 171.534 C 397.233 170.826,397.563 168.347,397.795 166.024 C 398.027 163.701,398.364 161.469,398.543 161.065 C 399.654 158.565,400.393 119.996,399.504 110.927 C 398.989 105.685,398.782 104.288,398.493 104.109 C 398.312 103.997,398.163 103.256,398.163 102.463 C 398.163 101.670,398.005 100.316,397.812 99.454 C 396.808 94.973,396.606 94.011,396.172 91.644 C 395.912 90.230,395.522 88.411,395.304 87.603 C 395.086 86.795,394.858 85.638,394.797 85.032 C 394.737 84.426,394.395 83.388,394.038 82.725 C 393.681 82.063,393.388 80.947,393.388 80.246 C 393.388 79.545,393.204 78.972,392.978 78.972 C 392.741 78.972,392.641 78.592,392.740 78.072 C 392.835 77.577,392.725 77.100,392.496 77.012 C 392.267 76.924,391.858 75.986,391.586 74.927 C 391.315 73.868,390.876 72.583,390.610 72.071 C 390.345 71.560,390.020 70.506,389.889 69.730 C 389.758 68.954,389.526 68.320,389.375 68.320 C 389.223 68.320,388.877 67.617,388.606 66.758 C 388.335 65.900,387.730 64.455,387.262 63.547 C 386.793 62.640,386.410 61.597,386.410 61.230 C 386.410 60.863,386.244 60.665,386.042 60.790 C 385.840 60.915,385.672 60.718,385.670 60.352 C 385.667 59.987,385.424 59.275,385.131 58.770 C 384.838 58.264,384.255 57.190,383.835 56.382 C 382.319 53.463,381.956 52.893,381.614 52.893 C 381.423 52.893,381.267 52.585,381.267 52.209 C 381.267 51.833,380.854 50.917,380.349 50.173 C 379.844 49.428,379.431 48.687,379.431 48.525 C 379.431 48.364,379.100 47.932,378.696 47.567 C 378.292 47.201,377.961 46.514,377.961 46.040 C 377.961 45.440,377.751 45.179,377.267 45.179 C 376.853 45.179,376.487 44.845,376.362 44.353 C 376.247 43.898,375.491 42.865,374.682 42.057 C 373.873 41.249,373.205 40.401,373.198 40.174 C 373.192 39.946,372.934 39.550,372.627 39.295 C 372.319 39.039,372.145 38.751,372.242 38.655 C 372.527 38.370,371.451 37.466,370.825 37.466 C 370.454 37.466,370.248 37.137,370.248 36.547 C 370.248 35.874,370.052 35.629,369.513 35.629 C 369.109 35.629,368.773 35.422,368.767 35.170 C 368.756 34.722,367.148 32.691,366.804 32.691 C 366.484 32.691,364.371 30.433,364.371 30.091 C 364.371 29.905,363.976 29.752,363.493 29.752 C 362.862 29.752,362.549 29.493,362.384 28.834 C 362.236 28.247,361.895 27.916,361.437 27.916 C 360.951 27.916,360.789 27.738,360.932 27.365 C 361.082 26.975,360.901 26.814,360.313 26.814 C 359.828 26.814,358.881 26.201,358.041 25.344 C 357.249 24.536,356.200 23.774,355.711 23.652 C 355.162 23.514,354.821 23.162,354.821 22.733 C 354.821 22.247,354.559 22.039,353.948 22.039 C 353.467 22.039,352.897 21.825,352.680 21.563 C 352.463 21.302,351.699 20.858,350.982 20.576 C 350.265 20.295,349.679 19.943,349.679 19.795 C 349.679 19.646,349.100 19.333,348.393 19.100 C 347.686 18.867,347.107 18.523,347.107 18.337 C 347.107 18.151,346.857 17.998,346.551 17.998 C 345.941 17.998,344.662 17.339,343.881 16.621 C 343.607 16.368,343.151 16.162,342.870 16.162 C 342.225 16.162,339.619 14.970,339.455 14.601 C 339.388 14.449,338.685 14.325,337.894 14.325 C 337.103 14.325,336.455 14.182,336.455 14.008 C 336.455 13.573,333.528 12.489,332.353 12.489 C 331.827 12.489,330.924 12.242,330.345 11.940 C 329.766 11.638,328.789 11.390,328.173 11.389 C 327.556 11.388,326.854 11.189,326.613 10.947 C 326.138 10.472,323.607 10.046,319.100 9.684 C 316.932 9.510,316.253 9.326,316.253 8.911 C 316.253 8.490,315.969 8.420,315.004 8.601 C 313.441 8.894,312.580 8.140,312.580 6.479 C 312.580 4.379,310.870 1.794,308.597 0.459 C 307.653 -0.095,300.976 -0.172,300.643 0.367 M294.387 25.719 C 294.361 29.521,293.748 36.946,293.428 37.338 C 293.238 37.571,292.921 40.215,292.723 43.215 C 292.525 46.214,292.132 49.580,291.849 50.693 C 291.567 51.807,291.130 55.113,290.877 58.040 C 290.625 60.966,290.286 63.450,290.125 63.559 C 289.964 63.667,289.647 65.403,289.422 67.415 C 289.197 69.428,288.771 72.708,288.476 74.705 C 288.181 76.701,287.848 79.263,287.736 80.398 C 287.624 81.533,287.300 83.363,287.017 84.467 C 286.733 85.570,286.501 87.036,286.501 87.726 C 286.501 88.416,286.178 90.737,285.783 92.883 C 285.389 95.030,284.904 98.117,284.706 99.743 C 284.263 103.387,284.194 103.706,283.792 103.999 C 283.615 104.128,283.423 104.871,283.366 105.652 C 283.308 106.432,283.139 108.765,282.989 110.836 C 282.799 113.469,282.579 114.601,282.256 114.601 C 281.935 114.601,281.718 115.686,281.543 118.182 C 281.404 120.152,281.044 122.507,280.742 123.416 C 280.441 124.325,280.102 126.272,279.988 127.743 C 279.875 129.215,279.641 130.505,279.469 130.612 C 279.296 130.718,279.155 131.221,279.155 131.728 C 279.155 132.236,278.907 132.899,278.604 133.202 C 278.301 133.505,278.053 133.576,278.053 133.360 C 278.053 133.143,277.635 132.966,277.123 132.966 C 276.612 132.966,276.099 132.718,275.982 132.415 C 275.866 132.112,275.548 131.864,275.276 131.864 C 275.004 131.864,274.368 131.451,273.863 130.946 C 273.358 130.441,272.606 130.028,272.193 130.028 C 271.780 130.028,271.442 129.876,271.442 129.690 C 271.442 129.505,270.904 129.015,270.248 128.603 C 269.591 128.190,268.574 127.433,267.987 126.920 C 267.400 126.407,266.795 125.987,266.643 125.987 C 266.490 125.987,265.658 125.244,264.792 124.337 C 263.927 123.429,262.921 122.591,262.555 122.475 C 262.190 122.359,261.892 122.062,261.892 121.815 C 261.892 121.568,261.247 120.773,260.460 120.049 C 259.672 119.325,258.823 118.340,258.572 117.860 C 258.114 116.983,257.481 116.205,256.290 115.057 C 255.937 114.716,255.647 114.226,255.647 113.968 C 255.647 113.710,255.411 113.499,255.121 113.499 C 254.832 113.499,254.479 113.127,254.336 112.672 C 254.194 112.218,253.687 111.379,253.210 110.807 C 252.732 110.236,252.342 109.534,252.342 109.246 C 252.342 108.959,252.179 108.724,251.981 108.724 C 251.783 108.724,251.517 108.310,251.391 107.805 C 251.264 107.300,251.013 106.887,250.833 106.887 C 250.652 106.887,250.505 106.639,250.505 106.336 C 250.505 106.033,250.358 105.785,250.178 105.785 C 249.997 105.785,249.739 105.342,249.603 104.800 C 249.282 103.521,247.594 100.643,247.164 100.643 C 246.982 100.643,246.832 100.330,246.832 99.948 C 246.832 99.436,246.471 99.188,245.455 99.001 C 243.133 98.575,240.233 98.489,240.016 98.840 C 239.902 99.024,239.058 99.174,238.139 99.174 C 236.805 99.174,236.511 99.285,236.680 99.725 C 236.796 100.028,236.728 100.275,236.528 100.275 C 234.426 100.275,232.725 108.845,234.468 110.648 C 234.715 110.903,235.146 111.855,235.427 112.764 C 235.708 113.673,236.123 114.582,236.349 114.784 C 237.117 115.469,238.293 117.720,238.124 118.182 C 238.021 118.463,238.276 118.641,238.782 118.641 C 239.236 118.641,239.512 118.737,239.395 118.854 C 239.277 118.972,239.580 119.656,240.068 120.375 C 240.556 121.094,240.955 121.814,240.955 121.975 C 240.955 122.137,241.451 122.812,242.057 123.475 C 242.663 124.139,243.159 124.887,243.159 125.138 C 243.159 125.389,243.489 125.771,243.893 125.987 C 244.298 126.203,244.628 126.622,244.628 126.918 C 244.628 127.214,244.837 127.456,245.092 127.456 C 245.348 127.456,245.843 128.118,246.193 128.926 C 246.543 129.734,247.041 130.395,247.299 130.395 C 247.557 130.395,248.454 131.123,249.292 132.013 C 250.129 132.903,251.060 133.771,251.359 133.942 C 251.659 134.112,251.961 134.582,252.031 134.986 C 252.101 135.390,252.489 135.810,252.893 135.920 C 253.297 136.030,253.843 136.567,254.106 137.114 C 254.385 137.692,254.886 138.108,255.303 138.108 C 255.697 138.108,256.379 138.522,256.818 139.027 C 257.257 139.532,257.743 139.945,257.899 139.945 C 258.054 139.945,258.627 140.358,259.172 140.863 C 259.716 141.368,260.309 141.781,260.488 141.781 C 260.668 141.781,261.299 142.277,261.892 142.883 C 262.484 143.489,263.219 143.985,263.524 143.985 C 263.829 143.985,264.349 144.399,264.680 144.904 C 265.092 145.532,265.617 145.822,266.342 145.822 C 266.924 145.822,267.401 145.995,267.401 146.207 C 267.401 146.419,268.023 146.874,268.783 147.217 C 269.544 147.561,270.685 148.214,271.319 148.669 C 271.954 149.123,272.902 149.495,273.427 149.495 C 273.951 149.495,274.380 149.649,274.380 149.838 C 274.380 150.026,274.688 150.278,275.064 150.397 C 275.593 150.565,275.991 152.250,275.502 152.250 C 275.461 152.250,275.346 153.817,275.246 155.733 C 275.146 157.649,274.928 159.302,274.761 159.406 C 274.593 159.510,274.259 160.900,274.018 162.493 C 273.777 164.087,273.349 166.153,273.066 167.085 C 272.783 168.016,272.550 169.376,272.548 170.107 C 272.545 170.838,272.130 173.628,271.625 176.309 C 271.120 178.989,270.702 181.697,270.695 182.326 C 270.689 182.956,270.466 183.758,270.200 184.109 C 269.933 184.459,269.687 185.702,269.652 186.870 C 269.463 193.149,267.287 199.396,265.273 199.439 C 265.012 199.444,264.352 199.862,263.808 200.367 C 263.263 200.872,262.627 201.286,262.394 201.286 C 262.161 201.286,261.875 201.534,261.759 201.837 C 261.643 202.140,261.294 202.388,260.985 202.388 C 260.676 202.388,260.422 202.140,260.422 201.837 C 260.422 201.534,260.201 201.286,259.930 201.286 C 259.660 201.286,259.250 200.872,259.020 200.367 C 258.790 199.862,258.356 199.449,258.056 199.449 C 257.506 199.449,256.474 197.987,257.012 197.971 C 257.170 197.967,256.739 197.687,256.053 197.349 C 255.368 197.011,254.729 196.436,254.633 196.072 C 254.527 195.666,254.119 195.409,253.584 195.409 C 253.103 195.409,252.709 195.243,252.709 195.041 C 252.709 194.839,252.544 194.674,252.342 194.674 C 252.140 194.674,251.663 194.385,251.283 194.031 C 249.873 192.720,248.826 192.053,247.866 191.856 C 247.323 191.744,246.791 191.424,246.683 191.143 C 246.576 190.863,246.229 190.634,245.912 190.634 C 245.393 190.634,243.619 189.681,243.159 189.155 C 243.058 189.040,242.565 188.919,242.064 188.888 C 241.563 188.856,240.966 188.575,240.738 188.263 C 240.510 187.950,240.052 187.695,239.721 187.695 C 239.389 187.695,239.118 187.535,239.118 187.339 C 239.118 187.144,238.859 187.083,238.541 187.205 C 238.223 187.327,237.496 187.081,236.925 186.659 C 236.354 186.237,235.469 185.786,234.958 185.658 C 234.448 185.530,233.744 185.109,233.395 184.724 C 233.046 184.338,232.548 184.022,232.289 184.022 C 232.030 184.022,231.270 183.519,230.601 182.905 C 227.311 179.883,223.324 179.099,219.845 180.789 C 218.930 181.234,218.182 181.725,218.182 181.882 C 218.182 182.039,217.681 182.426,217.068 182.743 C 216.455 183.059,216.052 183.477,216.171 183.670 C 216.291 183.864,216.229 184.022,216.034 184.022 C 215.494 184.022,215.141 187.439,215.428 189.905 C 215.604 191.424,215.842 192.103,216.198 192.103 C 216.481 192.103,216.713 192.268,216.713 192.471 C 216.713 192.673,217.746 193.597,219.008 194.524 C 220.271 195.451,221.359 196.359,221.426 196.543 C 221.494 196.727,221.771 196.878,222.043 196.878 C 222.315 196.878,222.755 197.091,223.022 197.353 C 223.289 197.614,224.045 198.047,224.702 198.315 C 225.358 198.584,225.895 199.031,225.895 199.310 C 225.895 199.588,226.237 199.816,226.654 199.816 C 227.072 199.816,227.955 200.230,228.617 200.735 C 229.280 201.240,230.168 201.653,230.592 201.653 C 231.015 201.653,231.457 201.808,231.574 201.997 C 231.853 202.449,233.952 203.489,234.584 203.489 C 234.856 203.489,235.078 203.659,235.078 203.866 C 235.078 204.073,235.450 204.406,235.904 204.606 C 236.359 204.806,237.227 205.286,237.833 205.672 C 238.439 206.058,239.159 206.386,239.433 206.401 C 239.707 206.416,240.762 207.089,241.777 207.897 C 242.792 208.705,243.766 209.366,243.941 209.366 C 244.117 209.366,244.261 209.594,244.261 209.871 C 244.261 210.149,244.757 210.476,245.363 210.597 C 246.152 210.755,246.465 211.028,246.465 211.561 C 246.465 211.970,246.638 212.305,246.849 212.305 C 247.388 212.305,249.036 214.144,249.036 214.746 C 249.036 215.020,249.348 215.243,249.731 215.243 C 250.165 215.243,250.512 215.587,250.656 216.162 C 250.783 216.667,251.023 217.080,251.191 217.080 C 251.358 217.080,251.777 217.700,252.121 218.457 C 252.751 219.844,255.118 221.855,256.120 221.855 C 256.417 221.855,256.865 222.103,257.117 222.406 C 257.770 223.193,262.259 223.193,262.259 222.406 C 262.259 222.103,262.579 221.855,262.970 221.855 C 263.854 221.855,263.774 224.183,262.672 230.446 C 262.277 232.690,261.769 236.409,261.542 238.709 C 261.315 241.010,260.972 243.186,260.780 243.545 C 260.588 243.904,260.346 245.493,260.244 247.076 C 259.948 251.648,259.628 254.333,259.332 254.729 C 259.181 254.931,258.861 257.163,258.620 259.688 C 258.379 262.213,258.093 264.775,257.986 265.381 C 257.878 265.987,257.707 267.433,257.604 268.595 C 257.426 270.619,255.647 272.054,255.647 270.174 C 255.647 269.881,255.414 269.509,255.129 269.348 C 254.844 269.186,253.895 268.145,253.022 267.034 C 250.993 264.454,250.644 264.096,250.164 264.096 C 249.948 264.096,249.770 263.888,249.770 263.635 C 249.770 263.203,247.852 261.157,247.446 261.157 C 247.343 261.157,246.589 260.537,245.770 259.780 C 244.951 259.022,243.766 257.989,243.136 257.484 C 242.506 256.979,241.584 256.194,241.086 255.739 C 240.589 255.285,239.943 254.913,239.650 254.913 C 239.358 254.913,239.118 254.582,239.118 254.178 C 239.118 253.646,238.874 253.444,238.231 253.444 C 237.743 253.444,237.288 253.310,237.221 253.147 C 237.036 252.700,233.910 250.642,232.966 250.347 C 232.511 250.205,232.140 249.961,232.140 249.804 C 232.140 249.648,231.476 249.302,230.665 249.034 C 229.854 248.766,229.016 248.337,228.803 248.081 C 228.590 247.824,227.954 247.512,227.389 247.388 C 226.824 247.264,226.016 246.840,225.593 246.446 C 225.170 246.052,224.429 245.730,223.945 245.730 C 223.462 245.730,222.289 245.317,221.340 244.812 C 217.598 242.822,212.273 242.844,210.366 244.856 C 209.917 245.330,209.343 245.720,209.091 245.724 C 208.838 245.727,208.632 246.028,208.632 246.391 C 208.632 246.755,208.425 247.259,208.173 247.511 C 207.866 247.818,207.713 249.204,207.713 251.687 C 207.713 254.333,207.846 255.447,208.173 255.556 C 208.425 255.640,208.632 255.913,208.632 256.163 C 208.632 257.612,212.138 259.477,216.425 260.309 C 216.974 260.415,217.614 260.732,217.848 261.013 C 218.081 261.294,218.665 261.524,219.145 261.524 C 219.625 261.524,220.019 261.648,220.021 261.800 C 220.024 262.177,222.153 263.361,222.827 263.361 C 223.128 263.361,223.915 263.774,224.577 264.279 C 225.239 264.784,225.979 265.197,226.221 265.197 C 226.711 265.197,227.357 265.672,228.720 267.034 C 229.226 267.539,229.789 267.973,229.971 267.998 C 230.154 268.023,230.468 268.065,230.670 268.090 C 230.872 268.115,231.038 268.384,231.038 268.687 C 231.038 268.990,231.273 269.238,231.560 269.238 C 231.847 269.238,232.648 269.899,233.340 270.707 C 234.032 271.515,234.714 272.176,234.855 272.176 C 235.368 272.176,238.751 275.829,238.751 276.383 C 238.751 276.696,239.007 276.951,239.320 276.951 C 239.965 276.951,241.660 278.734,241.678 279.431 C 241.684 279.683,241.938 279.890,242.241 279.890 C 242.544 279.890,242.792 280.014,242.792 280.165 C 242.792 280.317,243.164 280.881,243.618 281.420 C 244.073 281.959,244.700 282.706,245.012 283.081 C 245.325 283.457,246.228 284.751,247.020 285.959 C 247.812 287.166,248.551 288.237,248.663 288.338 C 248.775 288.439,249.072 288.935,249.322 289.440 C 249.572 289.945,250.133 290.937,250.570 291.644 C 252.110 294.140,253.086 295.875,253.306 296.511 C 253.429 296.864,253.675 297.153,253.854 297.153 C 254.446 297.153,253.996 307.419,253.233 311.295 C 252.823 313.380,252.808 314.969,253.193 315.455 C 253.461 315.792,253.462 316.019,253.198 316.190 C 252.806 316.443,251.970 331.557,251.966 338.476 C 251.962 343.188,251.806 343.417,249.819 341.601 C 248.951 340.808,247.925 340.059,247.537 339.935 C 247.149 339.812,246.832 339.392,246.832 339.002 C 246.832 338.490,246.576 338.292,245.914 338.292 C 245.377 338.292,244.995 338.081,244.995 337.785 C 244.995 337.506,244.378 336.806,243.623 336.231 C 242.869 335.655,241.359 334.313,240.269 333.249 C 239.179 332.184,238.207 331.313,238.110 331.313 C 238.012 331.313,237.332 330.613,236.597 329.757 C 235.863 328.902,234.394 327.335,233.333 326.276 C 232.273 325.217,231.405 324.016,231.405 323.608 C 231.405 323.060,231.163 322.865,230.487 322.865 C 229.982 322.865,229.568 322.678,229.568 322.449 C 229.568 322.221,228.825 321.290,227.916 320.381 C 227.006 319.472,226.262 318.626,226.261 318.501 C 226.259 318.376,225.516 317.489,224.608 316.530 C 223.700 315.571,222.957 314.641,222.957 314.463 C 222.957 314.284,222.337 313.473,221.579 312.661 C 220.822 311.848,219.711 310.382,219.111 309.403 C 217.950 307.508,217.616 307.041,216.663 305.985 C 216.333 305.619,215.866 304.722,215.625 303.991 C 215.383 303.260,214.942 302.663,214.642 302.663 C 214.343 302.663,214.188 302.517,214.298 302.339 C 214.463 302.072,213.464 300.453,212.685 299.725 C 212.577 299.624,212.075 298.723,211.570 297.724 C 210.629 295.862,210.033 294.982,208.907 293.792 C 208.554 293.419,208.265 292.906,208.266 292.654 C 208.267 292.401,207.047 289.715,205.556 286.685 C 202.770 281.026,201.982 279.335,201.318 277.589 C 201.108 277.036,200.786 276.584,200.602 276.584 C 200.418 276.584,200.158 275.854,200.024 274.961 C 199.890 274.069,199.553 273.150,199.276 272.920 C 198.999 272.690,198.661 271.846,198.526 271.046 C 198.391 270.246,198.067 269.378,197.807 269.117 C 197.547 268.857,197.217 267.910,197.074 267.013 C 196.932 266.115,196.498 264.754,196.110 263.988 C 195.722 263.222,195.344 261.923,195.270 261.101 C 195.196 260.278,194.990 259.500,194.813 259.371 C 194.635 259.242,194.428 258.889,194.352 258.586 C 193.675 255.896,193.416 255.071,193.200 254.913 C 193.062 254.812,192.848 253.614,192.724 252.252 C 192.600 250.889,192.315 249.432,192.091 249.014 C 191.867 248.596,191.630 247.975,191.564 247.635 C 191.498 247.294,191.165 245.528,190.823 243.710 C 190.482 241.892,190.054 240.073,189.874 239.669 C 189.693 239.265,189.370 236.824,189.156 234.243 C 188.942 231.663,188.691 229.349,188.596 229.101 C 186.420 223.371,187.537 183.375,190.127 174.274 C 190.416 173.255,190.794 171.602,190.965 170.600 C 192.546 161.370,193.271 158.246,194.583 155.005 C 194.705 154.702,194.841 154.206,194.885 153.903 C 195.097 152.424,195.847 149.684,196.229 148.989 C 196.465 148.560,196.712 147.879,196.779 147.475 C 196.949 146.434,198.733 141.304,199.077 140.863 C 199.235 140.661,199.479 139.959,199.619 139.302 C 199.760 138.646,200.027 138.108,200.213 138.108 C 200.399 138.108,200.551 137.530,200.551 136.823 C 200.551 136.116,200.716 135.537,200.918 135.537 C 201.120 135.537,201.286 135.243,201.286 134.884 C 201.286 134.525,201.543 133.864,201.857 133.415 C 202.172 132.966,202.296 132.594,202.133 132.588 C 201.970 132.581,202.111 132.416,202.447 132.220 C 202.783 132.024,203.175 131.171,203.318 130.324 C 203.461 129.478,203.806 128.557,204.085 128.278 C 204.363 127.999,204.591 127.569,204.591 127.321 C 204.591 127.073,205.418 125.183,206.428 123.121 C 207.438 121.058,208.264 119.124,208.264 118.822 C 208.264 118.521,208.389 118.274,208.542 118.274 C 208.695 118.274,209.026 117.809,209.277 117.241 C 209.528 116.673,210.081 115.835,210.505 115.380 C 210.930 114.925,211.181 114.456,211.063 114.338 C 210.875 114.150,212.174 111.412,212.681 110.927 C 213.293 110.342,214.141 108.643,214.141 108.002 C 214.141 107.591,214.308 107.254,214.512 107.254 C 214.715 107.254,215.147 106.593,215.470 105.785 C 215.793 104.977,216.205 104.316,216.385 104.316 C 216.565 104.316,216.713 104.068,216.713 103.765 C 216.713 103.462,216.878 103.214,217.080 103.214 C 217.282 103.214,217.447 102.883,217.447 102.479 C 217.447 102.075,217.609 101.745,217.808 101.745 C 218.006 101.745,218.272 101.329,218.399 100.822 C 218.527 100.314,218.821 99.777,219.053 99.628 C 219.598 99.278,221.488 96.365,221.488 95.876 C 221.488 95.669,221.663 95.500,221.877 95.500 C 222.091 95.500,222.174 95.352,222.062 95.172 C 221.951 94.991,222.092 94.754,222.376 94.645 C 222.660 94.536,223.105 93.857,223.365 93.137 C 223.626 92.417,224.012 91.824,224.224 91.819 C 224.436 91.815,224.858 91.333,225.161 90.749 C 226.121 88.896,229.988 83.735,230.280 83.916 C 230.435 84.011,230.777 83.434,231.042 82.632 C 231.306 81.831,231.744 81.175,232.015 81.175 C 232.285 81.175,232.507 80.927,232.507 80.624 C 232.507 80.321,232.737 80.073,233.019 80.073 C 233.449 80.073,234.007 79.329,234.128 78.595 C 234.208 78.111,235.778 76.400,236.142 76.400 C 236.366 76.400,236.836 75.739,237.186 74.931 C 237.584 74.013,238.065 73.462,238.470 73.462 C 238.917 73.462,239.118 73.176,239.118 72.544 C 239.118 72.039,239.325 71.621,239.578 71.617 C 239.830 71.612,240.523 70.951,241.117 70.147 C 241.712 69.344,242.414 68.687,242.678 68.687 C 242.943 68.687,243.160 68.480,243.161 68.228 C 243.161 67.975,243.657 67.240,244.262 66.595 C 244.868 65.949,245.363 65.358,245.363 65.281 C 245.363 64.772,253.828 56.533,254.148 56.731 C 254.394 56.882,254.545 56.617,254.545 56.036 C 254.545 55.519,254.714 55.096,254.920 55.096 C 255.127 55.096,256.986 53.437,259.053 51.410 C 261.119 49.382,263.182 47.629,263.636 47.513 C 264.091 47.398,264.463 47.136,264.463 46.933 C 264.463 46.450,267.203 43.710,267.686 43.710 C 267.890 43.710,268.152 43.462,268.269 43.159 C 268.385 42.856,268.722 42.608,269.018 42.608 C 269.314 42.608,269.661 42.277,269.789 41.873 C 269.917 41.469,270.171 41.139,270.354 41.139 C 270.536 41.139,271.476 40.398,272.441 39.492 C 273.407 38.586,274.486 37.843,274.839 37.839 C 275.193 37.836,275.482 37.656,275.482 37.439 C 275.482 36.949,276.409 35.996,276.886 35.996 C 277.081 35.996,277.335 35.748,277.451 35.445 C 277.568 35.142,277.875 34.892,278.134 34.889 C 278.392 34.885,279.183 34.391,279.890 33.791 C 280.597 33.190,281.375 32.531,281.619 32.327 C 281.863 32.123,282.223 31.956,282.419 31.956 C 282.615 31.956,283.100 31.543,283.497 31.038 C 283.895 30.533,284.485 30.119,284.810 30.119 C 285.134 30.119,285.399 29.871,285.399 29.568 C 285.399 29.265,285.590 29.017,285.824 29.017 C 286.057 29.017,286.790 28.604,287.452 28.099 C 288.114 27.594,288.819 27.181,289.017 27.181 C 289.216 27.181,289.434 27.057,289.501 26.905 C 289.790 26.256,293.315 23.860,293.832 23.962 C 294.244 24.044,294.395 24.523,294.387 25.719 M318.641 25.927 C 320.055 26.250,321.720 26.665,322.340 26.848 C 322.961 27.031,324.056 27.181,324.774 27.181 C 325.493 27.181,326.287 27.429,326.538 27.732 C 326.790 28.035,327.554 28.283,328.236 28.283 C 328.918 28.283,329.477 28.448,329.477 28.650 C 329.477 28.852,329.955 29.017,330.539 29.017 C 331.124 29.017,331.689 29.246,331.797 29.525 C 331.904 29.804,332.541 30.108,333.213 30.201 C 335.071 30.457,335.486 30.615,336.131 31.313 C 336.458 31.667,337.166 31.956,337.704 31.956 C 338.242 31.956,338.770 32.185,338.878 32.466 C 338.986 32.746,339.557 33.072,340.147 33.190 C 340.737 33.308,341.507 33.740,341.858 34.150 C 342.209 34.559,342.769 34.894,343.104 34.894 C 343.438 34.894,343.903 35.125,344.136 35.406 C 344.370 35.687,345.051 36.120,345.650 36.369 C 346.250 36.617,346.740 37.048,346.740 37.326 C 346.740 37.605,346.995 37.833,347.307 37.833 C 347.619 37.833,348.320 38.246,348.864 38.751 C 349.409 39.256,350.063 39.669,350.318 39.669 C 350.572 39.669,350.781 39.917,350.781 40.220 C 350.781 40.523,350.954 40.771,351.165 40.771 C 351.377 40.771,351.933 41.185,352.401 41.690 C 352.869 42.195,353.363 42.608,353.499 42.608 C 353.850 42.608,356.974 45.866,357.416 46.694 C 357.619 47.073,358.027 47.383,358.323 47.383 C 358.619 47.383,358.861 47.548,358.861 47.750 C 358.861 48.123,359.338 48.732,361.157 50.683 C 361.713 51.278,362.167 52.083,362.167 52.470 C 362.167 52.865,362.489 53.258,362.902 53.366 C 363.341 53.481,363.636 53.867,363.636 54.327 C 363.636 54.750,363.856 55.096,364.125 55.096 C 364.394 55.096,364.835 55.510,365.106 56.015 C 365.376 56.520,365.716 56.933,365.862 56.933 C 366.008 56.933,366.240 57.380,366.377 57.927 C 366.514 58.473,366.946 59.144,367.335 59.417 C 367.725 59.690,368.044 60.222,368.044 60.599 C 368.044 60.976,368.457 61.775,368.962 62.376 C 369.467 62.976,369.881 63.808,369.881 64.224 C 369.881 64.640,370.294 65.590,370.799 66.334 C 371.304 67.079,371.717 67.912,371.717 68.187 C 371.717 68.462,371.849 68.687,372.011 68.687 C 372.172 68.687,372.517 69.307,372.776 70.064 C 373.036 70.822,373.570 72.152,373.962 73.021 C 374.355 73.890,374.583 74.751,374.469 74.936 C 374.355 75.121,374.598 75.608,375.010 76.020 C 375.421 76.431,375.758 77.203,375.758 77.734 C 375.758 78.266,376.071 79.217,376.455 79.846 C 376.839 80.476,377.352 81.983,377.597 83.196 C 377.841 84.408,378.168 85.565,378.322 85.767 C 378.477 85.969,378.543 86.506,378.469 86.961 C 378.394 87.415,378.476 87.787,378.650 87.787 C 378.958 87.787,379.348 89.189,380.182 93.297 C 380.407 94.408,380.826 96.474,381.112 97.888 C 381.399 99.302,381.808 101.943,382.022 103.756 C 382.236 105.569,382.535 107.140,382.688 107.245 C 382.987 107.453,383.860 120.237,384.105 128.007 C 384.278 133.471,383.199 157.925,382.760 158.488 C 382.388 158.966,382.095 160.958,381.787 165.106 C 381.652 166.924,381.399 168.502,381.226 168.614 C 381.052 168.725,380.712 170.502,380.470 172.562 C 380.199 174.867,379.869 176.309,379.611 176.309 C 379.381 176.309,379.190 176.846,379.187 177.502 C 379.177 179.758,378.585 183.346,378.150 183.781 C 377.911 184.020,377.614 185.426,377.490 186.905 C 377.366 188.385,377.125 189.787,376.955 190.022 C 376.472 190.689,375.848 192.850,375.585 194.766 C 375.453 195.725,375.190 196.511,375.000 196.511 C 374.811 196.511,374.656 197.079,374.656 197.774 C 374.656 198.470,374.490 199.141,374.288 199.265 C 374.086 199.390,373.921 200.126,373.921 200.901 C 373.921 201.833,373.729 202.383,373.353 202.527 C 373.040 202.647,372.823 202.954,372.870 203.209 C 373.007 203.949,372.418 206.773,372.084 206.979 C 371.918 207.082,371.667 207.844,371.527 208.673 C 371.387 209.501,371.000 210.451,370.668 210.784 C 370.336 211.117,370.016 211.967,369.958 212.673 C 369.763 215.023,369.461 215.978,368.911 215.978 C 368.613 215.978,368.475 216.150,368.605 216.361 C 368.735 216.572,368.685 216.944,368.494 217.188 C 368.303 217.431,368.049 218.263,367.930 219.036 C 367.682 220.650,366.893 222.590,366.485 222.590 C 366.332 222.590,366.208 223.031,366.208 223.571 C 366.208 224.110,365.951 224.836,365.637 225.183 C 365.323 225.529,365.040 226.162,365.008 226.589 C 364.976 227.015,364.801 227.365,364.621 227.365 C 364.440 227.365,364.388 227.612,364.504 227.916 C 364.620 228.219,364.575 228.466,364.403 228.466 C 364.231 228.466,363.897 229.236,363.660 230.178 C 363.423 231.119,362.990 232.230,362.698 232.647 C 362.406 233.064,362.167 233.659,362.167 233.969 C 362.167 234.279,361.774 235.275,361.294 236.183 C 360.814 237.090,360.305 238.370,360.163 239.027 C 360.021 239.683,359.773 240.220,359.611 240.220 C 359.450 240.220,359.111 240.758,358.858 241.414 C 358.056 243.495,356.972 245.719,356.667 245.908 C 356.506 246.007,356.265 246.670,356.132 247.379 C 355.998 248.088,355.773 248.670,355.631 248.671 C 355.355 248.674,354.454 250.435,354.454 250.970 C 354.454 251.145,354.033 251.841,353.518 252.516 C 353.003 253.190,352.486 254.336,352.368 255.062 C 352.243 255.830,351.943 256.382,351.651 256.382 C 351.374 256.382,351.148 256.687,351.148 257.060 C 351.148 257.434,350.813 258.125,350.403 258.597 C 349.994 259.070,349.563 259.839,349.445 260.306 C 349.328 260.774,349.111 261.157,348.963 261.157 C 348.815 261.157,348.476 261.818,348.209 262.626 C 347.943 263.434,347.595 264.096,347.436 264.096 C 347.119 264.096,346.497 265.145,345.128 267.989 C 344.633 269.019,344.007 270.096,343.739 270.383 C 343.470 270.670,342.937 271.480,342.554 272.183 C 341.045 274.955,339.924 276.558,339.486 276.571 C 339.233 276.578,339.027 276.890,339.027 277.265 C 339.027 277.640,338.613 278.392,338.108 278.937 C 337.603 279.482,337.190 280.051,337.190 280.201 C 337.190 280.517,336.384 281.622,334.770 283.516 C 334.146 284.249,333.403 285.386,333.119 286.042 C 332.835 286.699,332.425 287.236,332.208 287.236 C 331.991 287.236,331.577 287.771,331.288 288.425 C 330.999 289.080,330.432 289.782,330.028 289.986 C 329.624 290.191,329.242 290.657,329.180 291.022 C 329.118 291.387,328.822 291.965,328.522 292.307 C 328.221 292.649,327.202 293.921,326.257 295.133 C 325.312 296.345,324.338 297.545,324.093 297.798 C 323.848 298.052,323.543 298.589,323.415 298.992 C 323.287 299.395,322.946 299.725,322.657 299.725 C 322.367 299.725,322.130 299.884,322.130 300.079 C 322.130 300.274,321.676 300.931,321.120 301.538 C 320.565 302.145,319.366 303.504,318.457 304.558 C 315.739 307.710,313.400 309.972,313.135 309.707 C 312.998 309.570,312.942 309.661,313.009 309.908 C 313.076 310.156,312.289 311.148,311.261 312.112 C 310.232 313.077,309.240 314.115,309.057 314.419 C 308.568 315.231,304.286 318.825,303.807 318.825 C 303.582 318.825,303.398 319.009,303.398 319.235 C 303.398 319.670,301.204 321.747,300.735 321.757 C 300.583 321.760,300.459 322.011,300.459 322.314 C 300.459 322.617,300.215 322.865,299.917 322.865 C 299.618 322.865,299.103 323.278,298.772 323.783 C 298.442 324.288,297.937 324.702,297.651 324.702 C 297.364 324.702,297.035 324.949,296.919 325.253 C 296.803 325.556,296.477 325.803,296.196 325.803 C 295.914 325.803,295.684 325.947,295.684 326.121 C 295.684 326.475,290.390 330.946,289.972 330.946 C 289.827 330.946,289.338 331.318,288.887 331.772 C 287.594 333.074,285.993 334.241,285.491 334.247 C 285.239 334.249,285.032 334.422,285.032 334.630 C 285.032 334.839,284.743 335.111,284.389 335.235 C 284.036 335.359,282.920 336.065,281.910 336.803 C 280.900 337.542,279.454 338.434,278.696 338.787 C 277.938 339.140,277.319 339.586,277.319 339.778 C 277.319 339.971,276.833 340.129,276.238 340.129 C 275.644 340.129,275.056 340.294,274.931 340.496 C 274.806 340.698,274.918 340.863,275.179 340.863 C 275.441 340.863,274.996 341.214,274.191 341.644 C 273.386 342.073,272.645 342.540,272.544 342.681 C 272.363 342.933,270.994 343.523,270.783 343.439 C 270.723 343.415,270.174 343.818,269.561 344.334 C 267.731 345.873,267.641 345.688,267.926 340.955 C 268.185 336.665,268.281 333.889,268.478 325.028 C 268.534 322.480,268.719 320.172,268.888 319.898 C 269.065 319.612,269.029 319.200,268.805 318.929 C 268.571 318.647,268.557 318.457,268.770 318.457 C 268.969 318.457,269.247 316.309,269.398 313.590 C 270.466 294.403,271.098 290.769,273.399 290.568 C 273.566 290.554,274.320 289.881,275.073 289.073 C 275.827 288.264,276.572 287.603,276.730 287.603 C 276.888 287.603,277.669 286.983,278.466 286.226 C 279.264 285.468,280.251 284.766,280.659 284.665 C 281.068 284.564,281.406 284.316,281.410 284.114 C 281.415 283.912,281.901 283.441,282.491 283.068 C 283.080 282.694,283.563 282.240,283.563 282.058 C 283.563 281.875,283.893 281.726,284.298 281.726 C 284.710 281.726,285.032 281.481,285.032 281.168 C 285.032 280.860,285.487 280.415,286.042 280.178 C 286.598 279.941,287.713 279.236,288.522 278.611 C 290.500 277.082,292.011 276.146,292.011 276.448 C 292.011 276.585,292.320 276.341,292.697 275.906 C 293.074 275.471,293.658 275.115,293.995 275.115 C 294.332 275.115,295.092 274.619,295.684 274.013 C 296.277 273.407,297.002 272.911,297.296 272.911 C 297.591 272.911,298.323 272.498,298.923 271.993 C 299.523 271.488,300.268 271.074,300.578 271.074 C 300.888 271.074,301.366 270.868,301.641 270.615 C 302.433 269.887,303.704 269.238,304.335 269.238 C 304.655 269.238,305.458 268.825,306.120 268.320 C 306.782 267.815,307.597 267.401,307.932 267.401 C 308.266 267.401,308.540 267.256,308.540 267.078 C 308.540 266.900,309.284 266.567,310.193 266.338 C 311.102 266.109,311.846 265.759,311.846 265.559 C 311.846 265.360,312.342 265.197,312.948 265.197 C 313.554 265.197,314.050 265.032,314.050 264.830 C 314.050 264.628,314.528 264.463,315.112 264.463 C 315.718 264.463,316.266 264.226,316.386 263.912 C 316.503 263.609,316.867 263.361,317.195 263.361 C 318.225 263.361,319.829 261.952,320.859 260.143 C 321.921 258.275,322.328 252.714,321.425 252.413 C 321.207 252.340,321.028 252.052,321.028 251.773 C 321.028 251.091,318.873 248.669,318.266 248.669 C 318.001 248.669,317.719 248.475,317.640 248.238 C 317.424 247.588,313.229 247.386,312.173 247.974 C 310.825 248.724,308.816 249.391,307.886 249.398 C 307.425 249.401,306.953 249.651,306.836 249.954 C 306.720 250.257,306.357 250.505,306.029 250.505 C 305.226 250.505,300.459 252.761,300.459 253.141 C 300.459 253.308,300.056 253.444,299.563 253.444 C 299.069 253.444,298.587 253.572,298.490 253.728 C 298.393 253.885,296.854 254.727,295.071 255.599 C 293.287 256.471,291.579 257.330,291.276 257.507 C 290.973 257.685,290.196 258.099,289.549 258.426 C 288.901 258.753,288.179 259.254,287.943 259.538 C 287.706 259.822,287.280 260.055,286.996 260.055 C 286.711 260.055,286.383 260.303,286.267 260.606 C 286.151 260.909,285.743 261.157,285.360 261.157 C 284.978 261.157,284.665 261.303,284.665 261.481 C 284.665 261.660,284.376 261.903,284.022 262.022 C 283.108 262.329,281.960 263.099,281.616 263.636 C 281.455 263.889,281.112 264.096,280.854 264.096 C 280.596 264.096,279.997 264.509,279.522 265.014 C 279.048 265.519,278.346 265.932,277.962 265.932 C 277.579 265.932,276.671 266.593,275.946 267.401 C 275.220 268.209,274.489 268.871,274.320 268.871 C 273.891 268.871,273.940 265.448,274.407 262.810 C 274.962 259.671,275.398 256.160,275.903 250.781 C 276.145 248.205,276.480 246.097,276.647 246.097 C 276.814 246.097,276.951 245.496,276.951 244.762 C 276.951 242.835,277.709 236.860,278.063 235.996 C 278.374 235.237,278.689 233.302,279.019 230.119 C 279.123 229.109,279.351 227.870,279.525 227.365 C 279.699 226.860,279.937 225.372,280.054 224.059 C 280.170 222.746,280.584 219.853,280.974 217.631 C 281.363 215.409,281.875 212.268,282.110 210.652 C 282.345 209.036,282.657 207.631,282.802 207.530 C 282.947 207.429,283.174 207.053,283.306 206.695 C 283.438 206.337,283.839 205.936,284.197 205.804 C 284.555 205.673,284.981 205.346,285.142 205.078 C 285.304 204.810,285.758 204.591,286.152 204.591 C 286.546 204.591,286.869 204.430,286.869 204.233 C 286.869 204.036,287.612 203.536,288.522 203.122 C 289.431 202.708,290.174 202.247,290.174 202.098 C 290.174 201.948,290.836 201.540,291.644 201.190 C 292.452 200.840,293.113 200.387,293.113 200.185 C 293.113 199.982,293.444 199.816,293.848 199.816 C 294.252 199.816,294.591 199.610,294.602 199.357 C 294.613 199.105,295.623 198.408,296.848 197.808 C 298.072 197.209,299.155 196.506,299.255 196.247 C 299.354 195.988,299.749 195.776,300.131 195.776 C 300.514 195.776,300.826 195.611,300.826 195.409 C 300.826 195.207,301.157 195.041,301.561 195.041 C 301.965 195.041,302.296 194.879,302.296 194.681 C 302.296 194.483,302.709 194.217,303.214 194.090 C 303.719 193.963,304.132 193.712,304.132 193.532 C 304.132 193.352,304.380 193.205,304.683 193.205 C 304.986 193.205,305.234 193.035,305.234 192.828 C 305.234 192.621,305.647 192.295,306.152 192.103 C 306.657 191.911,307.071 191.584,307.071 191.377 C 307.071 191.170,307.401 191.001,307.805 191.001 C 308.209 191.001,308.540 190.836,308.540 190.634 C 308.540 190.432,308.770 190.266,309.052 190.266 C 309.333 190.266,309.658 190.018,309.775 189.715 C 309.891 189.412,310.322 189.164,310.732 189.164 C 311.151 189.164,311.478 188.922,311.478 188.613 C 311.478 188.310,311.669 188.062,311.903 188.062 C 312.136 188.062,312.869 187.649,313.531 187.144 C 314.193 186.639,314.968 186.226,315.252 186.226 C 315.536 186.226,315.956 185.813,316.187 185.308 C 316.417 184.803,316.875 184.389,317.204 184.389 C 317.769 184.389,318.880 183.546,320.228 182.094 C 320.556 181.740,321.041 181.451,321.305 181.451 C 321.570 181.451,321.881 181.203,321.998 180.900 C 322.114 180.597,322.527 180.349,322.916 180.349 C 323.305 180.349,323.742 180.042,323.887 179.668 C 324.032 179.293,325.239 178.067,326.569 176.942 C 329.434 174.519,330.202 173.447,330.237 171.822 C 330.251 171.158,330.387 170.297,330.540 169.909 C 331.049 168.609,328.889 163.820,327.794 163.820 C 327.507 163.820,327.273 163.669,327.273 163.485 C 327.273 161.150,318.457 161.203,317.417 163.545 C 317.349 163.696,316.977 163.820,316.590 163.820 C 316.170 163.820,315.881 164.079,315.873 164.463 C 315.865 164.818,315.103 165.585,314.169 166.177 C 313.240 166.767,312.400 167.552,312.303 167.922 C 312.207 168.292,311.857 168.597,311.527 168.600 C 311.197 168.602,310.252 169.222,309.428 169.977 C 308.603 170.732,307.363 171.673,306.673 172.067 C 305.983 172.462,305.069 173.123,304.642 173.537 C 304.215 173.950,303.493 174.536,303.036 174.839 C 302.579 175.142,301.990 175.597,301.726 175.849 C 301.462 176.102,301.089 176.309,300.898 176.309 C 300.706 176.309,300.343 176.556,300.092 176.860 C 299.840 177.163,299.312 177.410,298.919 177.410 C 298.143 177.410,297.153 178.220,297.153 178.853 C 297.153 179.070,296.962 179.247,296.729 179.247 C 296.495 179.247,295.763 179.660,295.101 180.165 C 294.438 180.670,293.708 181.084,293.479 181.084 C 293.249 181.084,292.813 181.331,292.510 181.635 C 292.206 181.938,291.612 182.185,291.189 182.185 C 290.766 182.185,290.524 182.290,290.652 182.418 C 291.009 182.776,289.238 184.022,288.372 184.022 C 287.949 184.022,287.603 184.187,287.603 184.389 C 287.603 184.591,287.288 184.757,286.903 184.757 C 286.167 184.757,286.198 183.627,286.962 182.651 C 287.156 182.402,287.376 181.410,287.449 180.447 C 287.622 178.180,288.218 174.047,288.707 171.717 C 289.205 169.350,289.849 165.413,289.969 164.004 C 290.129 162.134,291.350 158.310,291.787 158.310 C 292.015 158.310,292.403 157.988,292.649 157.594 C 292.895 157.200,293.692 156.766,294.420 156.629 C 295.147 156.493,295.830 156.154,295.936 155.876 C 296.043 155.599,296.319 155.372,296.550 155.371 C 296.781 155.371,297.450 154.958,298.037 154.453 C 298.624 153.948,299.492 153.535,299.965 153.535 C 300.439 153.535,300.826 153.358,300.826 153.142 C 300.826 152.720,301.728 151.699,302.101 151.699 C 302.225 151.699,302.691 151.354,303.137 150.932 C 303.584 150.511,304.576 149.842,305.344 149.446 C 306.111 149.051,306.831 148.487,306.944 148.193 C 307.057 147.899,307.387 147.658,307.677 147.658 C 307.967 147.658,308.650 147.245,309.195 146.740 C 309.740 146.235,310.494 145.822,310.871 145.822 C 311.317 145.822,311.486 145.637,311.354 145.293 C 311.223 144.953,311.537 144.593,312.233 144.285 C 312.828 144.021,313.315 143.598,313.315 143.345 C 313.315 143.091,313.568 142.883,313.877 142.883 C 314.187 142.883,314.535 142.635,314.651 142.332 C 314.768 142.029,315.111 141.781,315.413 141.781 C 315.716 141.781,316.289 141.368,316.686 140.863 C 317.084 140.358,317.645 139.945,317.933 139.945 C 318.221 139.945,318.457 139.777,318.457 139.571 C 318.457 139.233,319.458 138.193,321.833 136.062 C 322.300 135.643,322.981 135.190,323.347 135.054 C 323.714 134.919,323.916 134.650,323.796 134.456 C 323.677 134.263,323.956 133.909,324.416 133.669 C 324.876 133.430,325.552 132.922,325.917 132.541 C 326.283 132.160,326.719 131.932,326.886 132.036 C 327.053 132.139,327.167 131.938,327.139 131.589 C 327.112 131.239,327.461 130.789,327.916 130.587 C 328.370 130.386,328.742 130.108,328.742 129.970 C 328.742 129.833,329.321 129.362,330.028 128.925 C 330.736 128.488,331.415 127.731,331.537 127.242 C 331.660 126.754,331.892 126.354,332.054 126.354 C 332.502 126.354,339.394 119.479,339.394 119.032 C 339.394 118.817,339.587 118.641,339.822 118.641 C 340.057 118.641,341.022 117.815,341.965 116.804 C 342.908 115.794,343.876 114.968,344.114 114.968 C 344.353 114.968,344.824 114.389,345.161 113.682 C 345.498 112.975,345.974 112.397,346.219 112.397 C 347.030 112.397,348.577 108.864,348.577 107.012 C 348.577 105.214,347.908 102.847,347.401 102.847 C 347.240 102.847,347.107 102.511,347.107 102.101 C 347.107 101.690,346.841 101.252,346.516 101.128 C 346.191 101.003,345.547 100.550,345.084 100.121 C 343.955 99.075,339.915 98.166,338.981 98.749 C 338.608 98.983,337.899 99.174,337.406 99.174 C 336.584 99.174,334.171 101.073,331.909 103.499 C 327.966 107.729,320.876 114.601,320.455 114.601 C 320.164 114.601,319.927 114.847,319.927 115.148 C 319.927 115.450,319.596 115.903,319.192 116.155 C 318.788 116.407,318.457 116.822,318.457 117.076 C 318.457 117.331,318.266 117.539,318.033 117.539 C 317.799 117.539,316.960 118.200,316.168 119.008 C 315.376 119.816,314.656 120.478,314.569 120.478 C 314.482 120.478,313.321 121.552,311.988 122.865 C 310.656 124.178,309.361 125.253,309.112 125.253 C 308.862 125.253,308.470 125.666,308.239 126.171 C 308.009 126.676,307.611 127.089,307.354 127.090 C 307.097 127.090,306.265 127.751,305.505 128.559 C 304.745 129.367,303.988 130.028,303.823 130.028 C 303.657 130.028,302.630 130.847,301.541 131.849 C 300.451 132.851,299.224 133.723,298.815 133.786 C 298.406 133.850,298.113 134.104,298.163 134.352 C 298.214 134.600,298.002 134.803,297.693 134.803 C 297.383 134.803,297.035 135.051,296.919 135.354 C 296.803 135.657,296.302 135.904,295.807 135.904 C 295.311 135.904,294.995 135.761,295.104 135.585 C 295.212 135.409,295.401 134.376,295.524 133.289 C 295.927 129.713,297.833 118.293,298.098 117.864 C 298.393 117.386,298.668 115.478,299.018 111.478 C 299.194 109.458,299.495 107.475,299.687 107.071 C 300.082 106.238,300.376 104.273,300.703 100.275 C 300.826 98.760,301.038 97.438,301.173 97.337 C 301.459 97.123,302.454 90.981,303.225 84.665 C 303.521 82.241,303.939 79.857,304.153 79.367 C 304.367 78.878,304.707 76.563,304.909 74.225 C 305.111 71.886,305.447 69.311,305.655 68.503 C 306.203 66.383,306.675 62.773,306.930 58.770 C 307.052 56.850,307.278 55.115,307.432 54.913 C 307.586 54.711,307.913 52.066,308.159 49.036 C 308.404 46.006,308.742 43.196,308.911 42.792 C 309.306 41.841,310.009 35.134,310.009 32.310 C 310.009 31.094,310.173 30.119,310.376 30.119 C 310.579 30.119,310.744 29.562,310.744 28.880 C 310.744 25.051,312.289 24.473,318.641 25.927 M131.394 197.289 C 131.620 197.515,133.182 197.762,134.865 197.838 C 139.478 198.045,143.985 198.758,143.985 199.280 C 143.985 199.566,144.806 199.787,146.260 199.893 C 147.537 199.985,148.597 200.246,148.678 200.488 C 148.757 200.725,149.138 200.918,149.526 200.918 C 149.913 200.918,150.230 201.084,150.230 201.286 C 150.230 201.488,150.900 201.653,151.720 201.653 C 152.621 201.653,153.121 201.798,152.984 202.020 C 152.860 202.222,153.020 202.388,153.342 202.388 C 153.663 202.388,154.021 202.635,154.137 202.938 C 154.256 203.249,154.803 203.489,155.389 203.489 C 156.031 203.489,156.890 203.911,157.635 204.591 C 158.298 205.197,159.020 205.693,159.237 205.693 C 160.013 205.693,161.610 206.619,161.613 207.071 C 161.615 207.323,161.948 207.530,162.353 207.530 C 162.759 207.530,163.450 207.943,163.889 208.448 C 164.328 208.953,164.888 209.366,165.133 209.366 C 165.378 209.366,165.673 209.614,165.789 209.917 C 165.906 210.220,166.254 210.468,166.563 210.468 C 166.873 210.468,167.127 210.592,167.128 210.744 C 167.130 210.895,167.750 211.432,168.506 211.937 C 170.548 213.300,170.891 213.714,170.885 214.804 C 170.882 215.349,170.994 215.960,171.133 216.162 C 171.566 216.789,171.584 220.206,171.159 221.322 C 170.840 222.161,170.864 222.463,171.270 222.762 C 171.635 223.030,171.848 224.372,172.003 227.365 C 172.288 232.878,173.888 244.419,174.473 245.179 C 174.790 245.591,175.671 251.333,175.616 252.630 C 175.596 253.091,175.812 253.558,176.095 253.667 C 176.412 253.788,176.707 254.703,176.863 256.042 C 177.002 257.240,177.264 258.312,177.447 258.425 C 177.629 258.537,177.778 259.446,177.778 260.444 C 177.778 261.442,177.943 262.259,178.145 262.259 C 178.347 262.259,178.512 262.507,178.512 262.810 C 178.512 263.113,178.678 263.361,178.880 263.361 C 179.082 263.361,179.247 263.711,179.247 264.138 C 179.247 264.776,179.098 264.870,178.421 264.660 C 177.966 264.519,177.181 264.312,176.676 264.200 C 176.171 264.088,175.536 263.821,175.266 263.607 C 174.613 263.089,171.184 261.892,170.354 261.892 C 169.993 261.892,169.697 261.726,169.697 261.524 C 169.697 261.322,169.295 261.157,168.804 261.157 C 168.313 261.157,166.840 260.661,165.531 260.055 C 164.222 259.449,162.805 258.953,162.383 258.953 C 161.961 258.953,161.616 258.788,161.616 258.586 C 161.616 258.384,161.058 258.219,160.376 258.219 C 159.693 258.219,158.943 257.987,158.709 257.705 C 158.474 257.422,157.669 257.101,156.919 256.991 C 154.175 256.588,152.998 256.264,152.511 255.778 C 152.238 255.504,151.654 255.274,151.213 255.267 C 150.773 255.260,150.000 255.018,149.495 254.729 C 148.990 254.440,148.122 254.198,147.567 254.191 C 147.011 254.184,146.556 254.013,146.556 253.811 C 146.556 253.609,145.890 253.444,145.076 253.444 C 144.098 253.444,143.523 253.256,143.384 252.893 C 143.267 252.590,142.777 252.342,142.293 252.342 C 141.810 252.342,141.414 252.176,141.414 251.974 C 141.414 251.772,140.965 251.607,140.416 251.607 C 139.384 251.607,137.741 250.105,137.741 249.162 C 137.741 248.891,137.609 248.669,137.448 248.669 C 137.286 248.669,136.932 248.049,136.661 247.291 C 136.390 246.534,136.068 245.830,135.945 245.727 C 135.500 245.356,133.701 241.676,133.701 241.138 C 133.701 240.836,133.550 240.588,133.367 240.588 C 133.075 240.588,131.769 238.459,129.109 233.651 C 128.705 232.921,128.168 232.105,127.916 231.838 C 127.663 231.571,127.456 231.116,127.456 230.828 C 127.456 230.539,127.199 230.303,126.884 230.303 C 126.569 230.303,126.411 230.141,126.533 229.943 C 126.803 229.507,126.070 228.028,125.383 227.622 C 125.109 227.460,124.885 227.169,124.885 226.976 C 124.885 226.782,124.409 226.125,123.828 225.517 C 123.246 224.908,122.305 223.711,121.737 222.857 C 121.169 222.003,120.164 220.725,119.504 220.018 C 116.404 216.696,115.702 215.839,115.702 215.376 C 115.702 215.088,115.314 214.876,114.784 214.876 C 114.263 214.876,113.866 214.664,113.866 214.386 C 113.866 213.859,111.884 211.938,111.340 211.938 C 111.160 211.938,110.741 211.524,110.410 211.019 C 110.079 210.514,109.573 210.101,109.284 210.101 C 108.996 210.101,108.628 209.893,108.466 209.638 C 107.260 207.738,98.806 205.855,98.806 207.487 C 98.806 207.665,98.145 208.472,97.337 209.280 C 96.529 210.088,95.868 211.089,95.868 211.505 C 95.868 211.921,95.702 212.364,95.500 212.489 C 94.320 213.218,95.485 220.118,96.957 221.120 C 97.106 221.221,97.423 221.676,97.662 222.130 C 97.921 222.622,98.440 222.957,98.944 222.957 C 99.490 222.957,99.939 223.282,100.209 223.875 C 100.439 224.380,100.855 224.793,101.134 224.793 C 101.413 224.793,101.952 225.207,102.331 225.712 C 102.711 226.217,103.230 226.630,103.485 226.630 C 103.740 226.630,103.949 226.878,103.949 227.181 C 103.949 227.484,104.224 227.732,104.561 227.732 C 104.897 227.732,105.077 227.828,104.959 227.946 C 104.697 228.207,106.007 229.568,106.520 229.568 C 106.722 229.568,106.887 229.780,106.887 230.038 C 106.887 230.297,107.218 230.746,107.622 231.038 C 108.026 231.329,108.356 231.705,108.356 231.873 C 108.356 232.042,108.851 232.708,109.457 233.353 C 110.062 233.999,110.558 234.734,110.558 234.986 C 110.559 235.239,110.711 235.445,110.896 235.445 C 111.080 235.445,111.832 236.520,112.567 237.833 C 113.301 239.146,114.018 240.222,114.159 240.223 C 114.301 240.225,114.987 241.300,115.683 242.611 C 116.380 243.922,117.092 244.995,117.266 244.995 C 117.440 244.995,117.480 245.161,117.355 245.363 C 117.075 245.817,113.866 245.854,113.866 245.404 C 113.866 245.224,113.287 244.969,112.580 244.836 C 111.873 244.703,111.295 244.433,111.295 244.235 C 111.295 244.038,110.675 243.904,109.917 243.938 C 108.635 243.995,106.847 243.779,104.709 243.308 C 104.218 243.200,102.505 242.962,100.903 242.779 C 99.302 242.597,97.802 242.295,97.572 242.108 C 97.111 241.735,93.694 241.416,86.685 241.093 C 84.091 240.973,81.869 240.697,81.578 240.459 C 80.826 239.843,59.212 239.869,57.999 240.487 C 57.514 240.735,55.381 241.011,53.260 241.101 C 48.867 241.287,45.677 241.722,42.252 242.601 C 40.946 242.936,39.353 243.112,38.714 242.992 C 37.909 242.841,37.491 242.929,37.358 243.277 C 37.142 243.840,34.212 244.768,33.273 244.572 C 32.590 244.429,34.470 242.057,35.267 242.057 C 35.793 242.057,36.731 241.132,36.731 240.614 C 36.731 240.397,37.043 240.220,37.423 240.220 C 37.804 240.220,38.386 239.807,38.717 239.302 C 39.048 238.797,39.540 238.384,39.810 238.384 C 40.080 238.384,40.611 237.971,40.991 237.466 C 41.370 236.961,41.871 236.547,42.105 236.547 C 42.338 236.547,42.624 236.299,42.741 235.996 C 42.857 235.693,43.205 235.445,43.515 235.445 C 43.824 235.445,44.077 235.197,44.077 234.894 C 44.077 234.562,44.417 234.343,44.933 234.343 C 45.454 234.343,45.969 234.008,46.248 233.487 C 46.500 233.017,47.189 232.346,47.779 231.997 C 48.369 231.649,48.852 231.207,48.852 231.017 C 48.852 230.826,49.141 230.667,49.495 230.664 C 49.848 230.661,50.527 230.247,51.003 229.746 C 51.478 229.244,52.073 228.834,52.324 228.834 C 52.927 228.834,54.362 227.575,54.362 227.046 C 54.362 226.817,54.610 226.630,54.913 226.630 C 55.216 226.630,55.464 226.465,55.464 226.263 C 55.464 226.061,55.794 225.895,56.198 225.895 C 56.606 225.895,56.933 225.650,56.933 225.344 C 56.933 225.041,57.235 224.793,57.604 224.793 C 57.972 224.793,58.662 224.380,59.137 223.875 C 59.611 223.370,60.309 222.957,60.688 222.957 C 61.066 222.957,61.759 222.544,62.227 222.039 C 62.695 221.534,63.265 221.120,63.495 221.120 C 63.724 221.120,63.912 220.951,63.912 220.744 C 63.912 220.537,64.325 220.210,64.830 220.018 C 65.335 219.826,65.748 219.500,65.748 219.293 C 65.748 219.086,66.004 218.916,66.315 218.916 C 66.627 218.916,67.328 218.503,67.873 217.998 C 68.417 217.493,69.097 217.080,69.383 217.080 C 69.669 217.080,70.445 216.667,71.107 216.162 C 71.769 215.657,72.561 215.243,72.867 215.243 C 73.174 215.243,73.870 214.830,74.415 214.325 C 74.960 213.820,75.800 213.407,76.282 213.407 C 76.764 213.407,77.253 213.159,77.369 212.856 C 77.486 212.553,77.793 212.305,78.053 212.305 C 78.313 212.305,78.608 212.089,78.710 211.826 C 78.811 211.562,79.614 211.115,80.494 210.831 C 81.374 210.548,82.226 210.103,82.387 209.841 C 82.549 209.580,83.078 209.366,83.562 209.366 C 84.047 209.366,84.889 208.953,85.434 208.448 C 85.979 207.943,86.718 207.530,87.076 207.530 C 87.434 207.530,88.549 207.117,89.555 206.612 C 90.560 206.107,91.628 205.693,91.928 205.693 C 92.227 205.693,92.678 205.445,92.929 205.142 C 93.181 204.839,93.665 204.591,94.006 204.591 C 94.347 204.591,94.946 204.349,95.338 204.052 C 95.731 203.755,96.496 203.508,97.040 203.501 C 97.583 203.495,98.130 203.324,98.255 203.122 C 98.380 202.920,98.891 202.755,99.390 202.755 C 99.890 202.755,100.394 202.507,100.510 202.204 C 100.653 201.831,101.237 201.653,102.313 201.653 C 103.189 201.653,104.007 201.488,104.132 201.286 C 104.257 201.084,104.666 200.918,105.042 200.918 C 105.417 200.918,105.783 200.741,105.855 200.524 C 105.928 200.307,107.057 200.037,108.365 199.925 C 109.674 199.813,110.992 199.509,111.295 199.250 C 111.598 198.991,112.507 198.735,113.315 198.680 C 114.123 198.626,115.040 198.458,115.353 198.307 C 115.666 198.156,117.606 197.981,119.664 197.917 C 122.240 197.837,123.461 197.657,123.583 197.340 C 123.815 196.736,130.795 196.691,131.394 197.289 M74.931 257.140 C 79.275 257.360,83.159 257.723,83.563 257.947 C 83.967 258.170,86.097 258.474,88.297 258.622 C 90.497 258.770,92.397 259.051,92.521 259.248 C 92.645 259.444,94.068 259.699,95.684 259.814 C 99.706 260.100,102.508 260.558,103.465 261.083 C 103.907 261.326,105.152 261.524,106.233 261.524 C 107.340 261.524,109.396 261.921,110.940 262.433 C 112.448 262.933,114.591 263.351,115.702 263.363 C 116.879 263.375,118.020 263.609,118.436 263.924 C 118.828 264.220,119.737 264.474,120.456 264.489 C 121.521 264.510,121.627 264.573,121.028 264.830 C 120.529 265.045,121.192 265.154,123.101 265.172 C 125.241 265.191,125.959 265.329,126.120 265.748 C 126.236 266.051,126.750 266.299,127.261 266.299 C 127.773 266.299,128.191 266.462,128.191 266.662 C 128.191 267.467,130.968 268.222,133.884 268.210 C 135.500 268.204,136.995 268.341,137.205 268.516 C 137.415 268.690,138.383 269.011,139.356 269.229 C 140.329 269.447,141.800 269.952,142.624 270.350 C 143.449 270.748,144.753 271.074,145.524 271.074 C 146.294 271.074,146.924 271.238,146.924 271.437 C 146.924 271.637,147.585 271.906,148.393 272.035 C 149.201 272.164,149.862 272.414,149.862 272.591 C 149.862 272.767,150.530 272.911,151.347 272.911 C 152.294 272.911,153.101 273.162,153.576 273.605 C 154.032 274.030,154.617 274.221,155.087 274.098 C 155.599 273.964,155.769 274.035,155.598 274.312 C 155.344 274.722,156.032 274.982,157.943 275.196 C 159.042 275.319,159.182 276.333,158.127 276.522 C 157.723 276.595,157.042 277.052,156.615 277.537 C 156.187 278.023,155.647 278.421,155.415 278.421 C 155.182 278.421,154.457 278.958,153.804 279.614 C 153.151 280.271,151.750 281.387,150.689 282.094 C 149.629 282.801,148.761 283.586,148.761 283.838 C 148.761 284.091,148.367 284.298,147.887 284.298 C 147.407 284.298,146.808 284.545,146.556 284.848 C 146.305 285.152,146.226 285.399,146.381 285.399 C 146.537 285.399,146.218 285.813,145.673 286.318 C 145.128 286.823,144.622 287.236,144.548 287.236 C 144.474 287.236,143.382 288.310,142.121 289.624 C 140.860 290.937,139.611 292.011,139.345 292.011 C 139.079 292.011,138.617 292.466,138.319 293.021 C 138.020 293.577,137.132 294.713,136.346 295.547 C 135.559 296.380,134.813 297.331,134.687 297.659 C 134.561 297.987,134.288 298.255,134.079 298.255 C 133.871 298.255,133.694 298.462,133.686 298.714 C 133.678 298.967,133.182 299.746,132.584 300.445 C 131.986 301.145,131.497 301.854,131.497 302.022 C 131.497 302.190,131.329 302.526,131.124 302.770 C 130.342 303.702,128.989 305.926,128.754 306.666 C 128.619 307.090,128.291 307.438,128.025 307.438 C 127.513 307.438,127.102 308.537,127.094 309.930 C 127.091 310.392,126.803 311.207,126.452 311.741 C 125.617 313.017,125.617 316.415,126.453 317.906 C 126.793 318.512,127.177 319.298,127.306 319.651 C 127.436 320.005,127.757 320.294,128.020 320.294 C 128.282 320.294,128.561 320.484,128.638 320.717 C 128.973 321.723,137.006 322.727,137.006 321.763 C 137.006 321.561,137.311 321.396,137.684 321.396 C 138.623 321.396,141.331 318.571,141.610 317.300 C 141.736 316.724,141.970 316.253,142.130 316.253 C 142.290 316.253,142.629 315.510,142.883 314.601 C 143.138 313.691,143.499 312.948,143.685 312.948 C 143.871 312.948,144.196 312.452,144.408 311.846 C 144.619 311.240,144.941 310.744,145.123 310.744 C 145.305 310.744,145.455 310.496,145.455 310.193 C 145.455 309.890,145.584 309.642,145.743 309.642 C 145.901 309.642,146.310 309.169,146.651 308.591 C 147.794 306.656,155.029 298.990,155.712 298.990 C 155.919 298.990,156.360 298.577,156.691 298.072 C 157.022 297.567,157.522 297.153,157.802 297.153 C 158.081 297.153,158.310 296.905,158.310 296.602 C 158.310 296.299,158.580 296.051,158.910 296.051 C 159.240 296.051,159.777 295.762,160.104 295.409 C 161.138 294.289,164.872 291.937,165.246 292.168 C 165.444 292.290,165.710 292.222,165.837 292.017 C 165.963 291.812,165.851 291.637,165.586 291.629 C 165.322 291.621,165.601 291.350,166.208 291.026 C 166.814 290.703,167.442 290.213,167.603 289.939 C 167.765 289.664,168.131 289.440,168.417 289.440 C 168.703 289.440,169.106 289.123,169.314 288.735 C 169.521 288.347,170.199 287.919,170.821 287.782 C 171.442 287.646,172.040 287.302,172.149 287.018 C 172.258 286.734,172.582 286.501,172.870 286.501 C 173.158 286.501,173.482 286.269,173.592 285.984 C 173.701 285.700,174.274 285.266,174.866 285.021 C 175.457 284.776,175.941 284.423,175.941 284.236 C 175.941 283.577,177.779 282.051,178.234 282.332 C 178.481 282.485,178.934 282.631,179.241 282.656 C 180.533 282.763,183.880 283.734,184.389 284.149 C 184.692 284.396,185.350 284.654,185.850 284.723 C 186.541 284.818,186.899 285.229,187.345 286.439 C 187.667 287.314,188.097 288.140,188.299 288.276 C 188.502 288.411,188.894 289.348,189.170 290.358 C 189.447 291.368,189.889 292.413,190.153 292.680 C 190.417 292.947,190.634 293.548,190.634 294.015 C 190.634 294.516,191.010 295.112,191.552 295.467 C 192.057 295.798,192.470 296.395,192.470 296.795 C 192.470 297.194,192.635 297.521,192.837 297.521 C 193.039 297.521,193.205 297.675,193.205 297.864 C 193.205 298.053,193.398 298.673,193.633 299.241 C 193.869 299.810,194.075 300.394,194.092 300.539 C 194.109 300.684,194.400 301.126,194.739 301.522 C 195.077 301.917,195.798 303.038,196.341 304.013 C 196.884 304.988,197.456 305.868,197.613 305.969 C 197.769 306.070,198.155 306.731,198.469 307.438 C 199.156 308.982,200.257 310.846,200.656 311.141 C 200.938 311.350,201.979 313.060,202.816 314.692 C 203.049 315.147,203.425 315.519,203.652 315.519 C 203.878 315.519,204.261 315.973,204.503 316.529 C 205.243 318.227,206.472 320.072,207.203 320.584 C 207.616 320.873,207.897 321.507,207.897 322.151 C 207.897 322.975,208.066 323.232,208.607 323.232 C 208.997 323.232,209.690 323.770,210.148 324.426 C 210.605 325.083,211.525 326.194,212.193 326.895 C 212.860 327.596,213.407 328.274,213.407 328.401 C 213.407 328.529,213.861 329.141,214.417 329.761 C 216.031 331.564,216.345 331.993,216.345 332.400 C 216.345 332.610,216.593 332.782,216.896 332.782 C 217.199 332.782,217.447 332.906,217.448 333.058 C 217.448 333.209,218.241 334.160,219.210 335.170 C 220.179 336.180,221.083 337.298,221.220 337.655 C 221.357 338.011,221.886 338.462,222.396 338.656 C 222.967 338.873,223.324 339.295,223.324 339.752 C 223.324 340.161,223.516 340.496,223.750 340.496 C 223.984 340.496,225.475 341.818,227.063 343.434 C 228.652 345.051,230.184 346.373,230.470 346.373 C 230.755 346.373,231.089 346.690,231.212 347.077 C 231.334 347.464,231.924 347.951,232.522 348.160 C 233.625 348.544,233.988 349.482,233.150 349.781 C 232.401 350.048,220.969 349.611,220.569 349.300 C 220.367 349.144,217.941 348.992,215.177 348.964 C 211.828 348.930,209.806 348.748,209.116 348.420 C 208.546 348.148,206.107 347.823,203.685 347.695 C 201.268 347.567,199.127 347.300,198.929 347.101 C 198.730 346.903,197.619 346.740,196.459 346.740 C 195.299 346.740,194.248 346.575,194.123 346.373 C 193.998 346.171,192.511 346.006,190.817 346.006 C 189.124 346.006,187.648 345.859,187.538 345.681 C 187.427 345.502,186.550 345.247,185.588 345.114 C 184.626 344.980,182.681 344.644,181.267 344.367 C 179.853 344.089,177.456 343.671,175.941 343.437 C 174.426 343.204,172.691 342.787,172.084 342.510 C 171.478 342.234,170.239 341.921,169.330 341.814 C 165.400 341.355,164.305 341.147,163.214 340.653 C 162.577 340.364,161.585 340.128,161.010 340.126 C 160.434 340.125,159.490 339.877,158.911 339.575 C 158.333 339.274,157.630 339.027,157.350 339.027 C 157.070 339.027,156.841 338.861,156.841 338.659 C 156.841 338.455,155.862 338.292,154.637 338.292 C 153.425 338.292,152.433 338.142,152.433 337.959 C 152.433 337.776,151.483 337.347,150.321 337.007 C 149.160 336.667,147.435 336.155,146.487 335.871 C 145.540 335.586,144.425 335.354,144.008 335.354 C 143.592 335.354,143.251 335.122,143.251 334.840 C 143.251 334.509,142.694 334.260,141.690 334.140 C 139.247 333.851,137.540 333.336,137.741 332.951 C 137.842 332.757,137.264 332.507,136.455 332.395 C 135.647 332.282,134.656 332.009,134.252 331.788 C 133.848 331.566,132.773 331.170,131.864 330.909 C 130.955 330.647,129.385 329.995,128.375 329.460 C 127.365 328.926,125.907 328.281,125.135 328.027 C 124.363 327.774,123.643 327.335,123.535 327.052 C 123.426 326.769,122.865 326.538,122.288 326.538 C 121.711 326.538,120.498 326.125,119.593 325.620 C 118.689 325.115,117.690 324.702,117.374 324.702 C 117.058 324.702,116.440 324.288,116.001 323.783 C 115.518 323.228,114.811 322.865,114.212 322.865 C 113.667 322.865,113.015 322.617,112.764 322.314 C 112.513 322.011,111.987 321.763,111.595 321.763 C 111.204 321.763,110.975 321.615,111.087 321.435 C 111.198 321.254,110.878 321.003,110.374 320.877 C 109.870 320.751,109.458 320.485,109.458 320.287 C 109.458 320.089,109.035 319.927,108.518 319.927 C 108.001 319.927,107.675 319.770,107.794 319.578 C 107.912 319.386,107.432 319.121,106.726 318.988 C 106.019 318.856,105.016 318.353,104.496 317.871 C 103.976 317.389,103.108 316.883,102.568 316.748 C 102.028 316.612,101.260 316.198,100.861 315.826 C 100.463 315.455,99.755 315.152,99.288 315.152 C 98.821 315.152,98.439 315.002,98.439 314.819 C 98.439 314.500,95.638 312.679,94.307 312.133 C 93.953 311.988,93.664 311.699,93.664 311.490 C 93.664 311.282,93.414 311.111,93.108 311.111 C 92.404 311.111,91.000 310.335,90.615 309.734 C 90.454 309.481,90.090 309.275,89.807 309.275 C 89.524 309.275,89.161 309.059,88.999 308.796 C 88.837 308.532,88.124 308.047,87.414 307.717 C 86.704 307.388,85.725 306.694,85.238 306.176 C 84.751 305.658,84.134 305.234,83.866 305.234 C 83.598 305.234,83.379 305.069,83.379 304.867 C 83.379 304.665,83.149 304.500,82.868 304.500 C 82.586 304.500,82.261 304.252,82.144 303.949 C 82.028 303.646,81.670 303.398,81.349 303.398 C 81.028 303.398,80.867 303.232,80.992 303.030 C 81.117 302.828,80.878 302.663,80.462 302.663 C 80.046 302.663,79.747 302.466,79.798 302.224 C 79.848 301.983,79.394 301.693,78.788 301.579 C 78.005 301.433,77.652 301.134,77.569 300.549 C 77.478 299.913,77.210 299.725,76.397 299.725 C 75.741 299.725,74.892 299.311,74.144 298.629 C 73.484 298.026,72.441 297.293,71.826 296.999 C 71.211 296.705,70.464 296.124,70.167 295.707 C 69.870 295.290,69.415 294.949,69.157 294.949 C 68.898 294.949,68.687 294.784,68.687 294.582 C 68.687 294.380,68.474 294.215,68.214 294.215 C 67.954 294.215,67.169 293.726,66.469 293.128 C 65.770 292.530,64.991 292.034,64.738 292.026 C 64.486 292.018,64.279 291.763,64.279 291.460 C 64.279 291.157,64.054 290.909,63.778 290.909 C 63.503 290.909,62.883 290.518,62.401 290.040 C 61.919 289.563,61.161 289.058,60.717 288.920 C 60.272 288.781,59.807 288.346,59.682 287.952 C 59.557 287.558,59.135 287.236,58.745 287.236 C 58.354 287.236,58.035 286.988,58.035 286.685 C 58.035 286.382,57.799 286.134,57.511 286.134 C 57.222 286.134,56.661 285.721,56.264 285.216 C 55.867 284.711,55.273 284.298,54.944 284.298 C 54.615 284.298,54.164 283.897,53.941 283.407 C 53.717 282.918,53.143 282.419,52.663 282.299 C 52.183 282.178,51.791 281.918,51.791 281.719 C 51.791 281.521,51.584 281.356,51.331 281.353 C 51.079 281.349,50.483 280.936,50.007 280.434 C 49.532 279.933,48.985 279.522,48.792 279.522 C 48.599 279.522,48.546 279.353,48.674 279.146 C 48.802 278.938,48.416 278.597,47.815 278.388 C 47.214 278.178,46.638 277.687,46.536 277.296 C 46.412 276.822,46.031 276.584,45.397 276.584 C 44.873 276.584,44.444 276.399,44.444 276.173 C 44.444 275.742,42.252 273.662,41.788 273.651 C 41.542 273.646,40.328 272.604,37.395 269.881 C 36.797 269.325,36.072 268.871,35.784 268.871 C 35.497 268.871,35.262 268.742,35.262 268.585 C 35.262 268.056,33.104 265.932,32.567 265.932 C 32.274 265.932,31.939 265.684,31.823 265.381 C 31.707 265.078,31.349 264.830,31.027 264.830 C 30.706 264.830,30.545 264.665,30.670 264.463 C 30.795 264.261,30.640 264.096,30.325 264.096 C 29.159 264.096,29.813 263.434,31.910 262.493 C 33.097 261.960,34.576 261.524,35.198 261.524 C 35.819 261.524,36.459 261.303,36.621 261.033 C 36.782 260.763,38.237 260.325,39.853 260.061 C 41.469 259.796,43.002 259.416,43.259 259.214 C 43.517 259.013,45.166 258.718,46.925 258.557 C 48.683 258.397,50.181 258.090,50.252 257.875 C 50.331 257.638,51.784 257.468,53.933 257.444 C 55.886 257.422,58.476 257.281,59.688 257.131 C 63.119 256.705,66.398 256.707,74.931 257.140 " stroke="none" fill="#85b548" fill-rule="evenodd"/>
    </g>
</svg>